<svg viewbox="0 0 108 109.284" xmlns="http://www.w3.org/2000/svg" fill="none">
    <path
        d="M105.019 62.999c.405-2.74.614-5.549.614-8.407C105.633 24.44 82.318 0 53.558 0c-13.814 0-27.06 5.752-36.826 15.99C6.967 26.228 1.479 40.114 1.479 54.592c0 2.832.21 5.644.623 8.407h3.056a53.933 53.933 0 0 1-.674-8.488c0-28.434 21.991-51.487 49.114-51.487 27.123 0 49.113 23.053 49.113 51.487 0 2.864-.229 5.702-.673 8.488h2.981Zm-5.436 17.153c-8.744 17.27-26.076 29.032-46.025 29.032-13.814 0-27.06-5.752-36.826-15.99a54.41 54.41 0 0 1-9.191-13.042h3.469a51.198 51.198 0 0 0 7.861 10.767c9.209 9.654 21.701 15.078 34.727 15.078 13.025 0 25.517-5.424 34.726-15.078a51.168 51.168 0 0 0 7.862-10.767h3.397ZM87.381 62.999a38.41 38.41 0 0 0 1.032-8.874c0-20.265-15.672-36.696-35.004-36.696-9.284 0-18.187 3.866-24.752 10.749-6.566 6.881-10.253 16.216-10.253 25.947 0 3.061.358 6.033 1.029 8.874h1.121a37.338 37.338 0 0 1-1.072-8.909c0-19.684 15.221-35.642 33.998-35.642 9.014 0 17.662 3.755 24.038 10.438 6.376 6.686 9.957 15.749 9.957 25.204 0 3.076-.372 6.062-1.072 8.909h.978Zm-9.295 17.153c-6.328 6.594-15.05 10.671-24.677 10.671-9.628 0-18.35-4.077-24.678-10.671h1.56c6.075 5.941 14.227 9.577 23.189 9.577 8.96 0 17.114-3.636 23.186-9.577h1.42Z"
        fill-rule="evenodd" fill="var(--neutral-950)" class="fills" />
    <path
        d="M1.041 70.998h2.488a.987.987 0 0 0 .562-.158.998.998 0 0 0 .354-.458c.087-.201.131-.444.131-.73v-1.964c0-.298-.041-.55-.122-.756a.967.967 0 0 0-.925-.64H1.041v-2.084h2.505c.656 0 1.215.13 1.677.388a2.49 2.49 0 0 1 1.066 1.127c.25.493.375 1.084.375 1.775v2.364c0 .678-.125 1.259-.375 1.746a2.542 2.542 0 0 1-1.078 1.094c-.461.253-1.016.38-1.665.38H1.041v-2.084ZM0 64.208h2.06v14.499H0V64.208Zm11.721 14.499c-.727 0-1.347-.137-1.86-.412a2.805 2.805 0 0 1-1.184-1.181c-.27-.515-.405-1.137-.405-1.865v-7.583c0-.728.135-1.35.405-1.865a2.74 2.74 0 0 1 1.184-1.184c.513-.272 1.133-.409 1.86-.409.725 0 1.345.137 1.859.409.512.267.904.662 1.173 1.184.275.515.413 1.137.413 1.865v7.583c0 .728-.138 1.35-.413 1.865a2.757 2.757 0 0 1-1.173 1.181c-.514.275-1.134.412-1.859.412Zm0-2.111c.286 0 .533-.058.74-.174a1.16 1.16 0 0 0 .47-.501c.106-.221.159-.484.159-.789v-7.357c0-.307-.053-.568-.159-.784a1.075 1.075 0 0 0-.47-.497 1.481 1.481 0 0 0-.74-.175c-.289 0-.537.058-.744.175-.207.11-.363.276-.469.497a1.75 1.75 0 0 0-.16.784v7.357c0 .305.053.568.16.789.106.215.262.382.469.501a1.5 1.5 0 0 0 .744.174Zm5.283-12.388h2.051v14.499h-2.051V64.208Zm.959 12.415h4.786v2.084h-4.786v-2.084Zm10.81-4.478 3.155-7.937h2.331l-5.573 11.994.087-4.057Zm-1.658-7.937h2.097v14.499h-2.097V64.208Zm2.79 6.67 1.422-1.486 3.371 9.315h-2.323l-2.47-7.829Zm5.482-6.67h2.054v14.499h-2.054V64.208Zm.962 12.415h4.783v2.084h-4.783v-2.084Zm9.139 2.084c-.675 0-1.256-.135-1.741-.405a2.717 2.717 0 0 1-1.096-1.193c-.247-.528-.37-1.16-.37-1.895V64.208h2.082v11.075c0 .414.098.733.293.956.195.218.472.327.832.327.367 0 .648-.109.843-.327.201-.223.301-.542.301-.956V64.208h2.083v11.006c0 .735-.129 1.367-.387 1.895a2.717 2.717 0 0 1-1.099 1.193c-.48.27-1.06.405-1.741.405Zm8.186 0c-.709 0-1.316-.134-1.82-.401a2.717 2.717 0 0 1-1.146-1.164c-.262-.507-.39-1.126-.384-1.856v-.732l2.034-.02v.703c0 .437.112.776.337 1.019.23.24.556.36.979.36.405 0 .717-.117.934-.352.224-.24.336-.579.336-1.015v-1.242c0-.307-.074-.567-.223-.78a1.861 1.861 0 0 0-.58-.538 9.726 9.726 0 0 0-.951-.529l-.057-.017a.267.267 0 0 0-.056-.032l-.122-.057a9.37 9.37 0 0 1-1.344-.821c-.36-.275-.665-.646-.914-1.115-.241-.468-.362-1.053-.362-1.757v-.772c0-.717.127-1.329.382-1.836.26-.509.639-.894 1.137-1.153.498-.261 1.099-.392 1.803-.392.69 0 1.278.134 1.763.401a2.54 2.54 0 0 1 1.1 1.164c.255.507.386 1.122.394 1.845v.772l-2.046.02v-.732c0-.45-.106-.793-.317-1.027-.211-.24-.509-.361-.894-.361-.417 0-.735.114-.954.341-.217.221-.325.531-.325.929v.919c0 .312.072.579.215.8.149.222.336.404.56.547.223.137.53.303.923.497.056.027.109.057.158.089.057.027.113.056.17.089a.435.435 0 0 1 .065.028 8.834 8.834 0 0 1 1.344.793c.323.24.599.581.829 1.024.23.436.345 1 .345 1.69v1.241c0 .731-.13 1.352-.39 1.865a2.628 2.628 0 0 1-1.132 1.173c-.491.261-1.088.392-1.791.392Zm6.406-2.055h2.192c.358 0 .633-.094.825-.28.191-.193.287-.459.287-.797V73.66c0-.306-.048-.564-.145-.777a1.03 1.03 0 0 0-.401-.499 1.165 1.165 0 0 0-.633-.169H60.08v-2.043h2.096c.333 0 .589-.113.767-.339.186-.233.279-.562.279-.987v-1.517c0-.339-.09-.601-.27-.786-.178-.186-.43-.28-.755-.28H60.08v-2.055h2.212c.632 0 1.174.117 1.626.35.453.226.798.562 1.034 1.008.236.437.354.966.354 1.585v1.544c0 .453-.076.852-.229 1.196-.153.339-.37.618-.65.838-.281.22-.623.37-1.025.45.441.066.815.212 1.12.438.314.225.553.521.718.887.166.36.249.782.249 1.267v1.944c0 .63-.118 1.168-.354 1.614-.23.446-.565.788-1.005 1.028-.441.233-.974.35-1.599.35H60.08v-2.055Zm-1.254-12.444h2.105v14.499h-2.105V64.208Zm8.042 0h2.068v14.499h-2.068V64.208Zm.986 12.394h4.989v2.105h-4.989v-2.105Zm0-6.141h4.521v2.093h-4.521v-2.093Zm0-6.253h4.989v2.105h-4.989v-2.105Zm7.738 12.415h2.163c.325 0 .574-.101.746-.301.18-.206.27-.495.27-.867V67.46c0-.374-.09-.66-.27-.858-.172-.206-.421-.31-.746-.31h-2.163v-2.084h2.259c.639 0 1.184.124 1.637.371.453.245.798.604 1.034 1.077.242.465.363 1.029.363 1.693v8.217c0 .658-.121 1.222-.363 1.693a2.471 2.471 0 0 1-1.042 1.077c-.455.247-1.001.371-1.638.371h-2.25v-2.084Zm-1.371-12.415h2.108v14.499h-2.108V64.208Zm9.438 6.287h2.486c.257 0 .479-.05.666-.149a.97.97 0 0 0 .419-.429c.101-.192.154-.429.159-.709v-1.543c0-.286-.05-.532-.15-.738a.969.969 0 0 0-.428-.467 1.272 1.272 0 0 0-.666-.169h-2.486v-2.083h2.338c.728 0 1.351.13 1.868.388.518.253.914.628 1.188 1.126.274.492.411 1.084.411 1.774v1.695c0 .71-.137 1.32-.411 1.832a2.72 2.72 0 0 1-1.196 1.155c-.518.267-1.138.4-1.86.4h-2.338v-2.083Zm-.936-6.287h2.03v14.499h-2.03V64.208Zm3.048 7.92 1.899-.458 2.177 7.037h-2.225l-1.851-6.579Zm7.523 6.579h-2.068V64.208h2.068v14.499Zm3.75 0a3.443 3.443 0 0 1-1.621-.384 3.338 3.338 0 0 1-1.21-1.087l1.488-1.421c.177.237.377.421.601.551a1.4 1.4 0 0 0 .704.188c.355 0 .624-.105.809-.315.185-.217.278-.526.278-.927V64.208h2.094v11.271c0 .679-.124 1.261-.372 1.749a2.567 2.567 0 0 1-1.075 1.103c-.47.251-1.035.376-1.696.376Zm4.982-14.499h2.061v14.499h-2.061V64.208Zm.992 6.393h4.513v2.072h-4.513v-2.072Zm0-6.393H108v2.084h-4.982v-2.084Z"
        fill="var(--neutral-950)" class="fills" />
    <path
        d="M43.2 80.514h3.132v.369h-1.308v2.526h-.539v-2.526H43.2v-.369Zm3.642.004h.538v2.891h-.538v-2.891Zm1.371 0h.535v2.514h1.69v.377h-2.225v-2.891Zm3.693.369h-.462v.869h.359c.285 0 .487-.042.607-.127a.38.38 0 0 0 .183-.327c0-.276-.229-.415-.687-.415Zm.04 1.238h-.502v.915h.53c.293 0 .491-.016.596-.05a.564.564 0 0 0 .253-.166.36.36 0 0 0 .097-.241.35.35 0 0 0-.102-.242.6.6 0 0 0-.285-.163c-.124-.035-.32-.053-.587-.053Zm4.665-1.607h.538v1.641c0 .222-.021.389-.063.502a.97.97 0 0 1-.156.284.997.997 0 0 1-.225.201c-.297.197-.685.295-1.166.295-.488 0-.88-.097-1.177-.292a1.128 1.128 0 0 1-.228-.204.98.98 0 0 1-.151-.278c-.04-.108-.06-.279-.06-.512v-1.637h.539v1.641c0 .271.041.46.122.568.08.106.203.191.368.256.163.064.357.096.581.096.32 0 .579-.065.778-.193a.636.636 0 0 0 .231-.244c.046-.095.069-.256.069-.483v-1.641Zm2.003.352h-.163v.914h.206c.271 0 .457-.019.558-.056a.485.485 0 0 0 .237-.161.393.393 0 0 0 .085-.248.366.366 0 0 0-.094-.245.493.493 0 0 0-.265-.157c-.112-.031-.3-.047-.564-.047Zm-.698 2.539v-2.891h.94c.38 0 .68.073.901.219.224.144.336.339.336.587a.635.635 0 0 1-.163.436 1 1 0 0 1-.47.276c.12.061.237.143.351.248.116.104.277.287.484.547.131.165.236.289.314.371l.199.207h-.638l-.166-.19a.307.307 0 0 0-.031-.036l-.105-.113-.166-.212-.182-.224a2.373 2.373 0 0 0-.305-.284 1.041 1.041 0 0 0-.251-.151c-.072-.032-.196-.049-.373-.049h-.14v1.259h-.535Zm-5.74 0h-1.268v-2.891h.983c.31 0 .551.033.724.098a.881.881 0 0 1 .396.265c.093.111.14.241.14.39 0 .284-.191.486-.573.608.274.041.491.128.653.261a.605.605 0 0 1 .245.481.59.59 0 0 1-.148.394 1.05 1.05 0 0 1-.436.284c-.19.074-.429.11-.716.11Zm11.069-1.424h1.259v1.225a4.32 4.32 0 0 1-1.373.231c-.622 0-1.118-.139-1.491-.417-.37-.28-.555-.625-.555-1.035 0-.431.191-.79.575-1.077.386-.286.868-.43 1.448-.43.211 0 .411.018.601.053.19.036.43.1.721.193v.422a3.232 3.232 0 0 0-1.331-.301c-.41 0-.756.108-1.037.324-.281.215-.422.478-.422.791 0 .329.141.597.422.805.281.208.642.312 1.083.312.216 0 .474-.038.772-.113l.051-.012v-.602h-.723v-.369ZM69.54 96.48c-.202 0-.37-.127-.37-.282 0-.157.168-.284.37-.284.205 0 .373.127.373.284 0 .155-.168.282-.373.282Zm-25.952-1.759h2.156v.369h-1.612v.882h1.557v.37h-1.557v.897h1.664v.369h-2.208v-2.887Zm3.731 1.679-.416-.191c-.258-.12-.443-.238-.555-.354a.578.578 0 0 1-.162-.403c0-.227.103-.412.309-.555.208-.141.479-.212.812-.212.318 0 .609.068.873.203v.469a1.475 1.475 0 0 0-.884-.299.921.921 0 0 0-.439.093c-.114.062-.171.143-.171.242 0 .086.041.167.124.244.085.075.221.154.408.237l.416.187c.464.209.696.476.696.803 0 .23-.102.418-.306.564-.204.144-.47.216-.798.216a2.04 2.04 0 0 1-1.025-.263v-.524a1.43 1.43 0 0 0 1.023.424.776.776 0 0 0 .424-.108c.114-.073.171-.164.171-.273 0-.177-.167-.343-.5-.5Zm1.292-1.683h3.178v.369h-1.326v2.526h-.549v-2.526h-1.303v-.369Zm3.181 2.433c.092 0 .171.024.237.072.065.048.098.107.098.178 0 .069-.033.127-.098.174a.39.39 0 0 1-.237.07.384.384 0 0 1-.234-.07.209.209 0 0 1-.095-.174c0-.071.031-.13.095-.178a.379.379 0 0 1 .234-.072Zm2.762.061h1.448v.401h-2.407v-.03l.231-.203c.357-.338.64-.624.85-.859.214-.233.352-.409.416-.529a.749.749 0 0 0 .098-.357.477.477 0 0 0-.185-.392c-.121-.099-.282-.148-.482-.148a1.08 1.08 0 0 0-.454.104 1.305 1.305 0 0 0-.396.288v-.526a1.71 1.71 0 0 1 .913-.275c.334 0 .607.084.821.252a.779.779 0 0 1 .324.64c0 .116-.027.24-.081.373a1.873 1.873 0 0 1-.284.456 6.755 6.755 0 0 1-.693.702l-.119.103Zm3.061-2.134Za.576.576 0 0 0-.526.295c-.122.193-.182.457-.182.792 0 .342.059.61.179.804.121.195.287.292.497.292.21 0 .375-.097.497-.292.121-.194.182-.457.182-.791 0-.336-.059-.603-.176-.801-.116-.199-.273-.299-.471-.299Zm2.493-.356h.546v2.891h-.546v-2.891Zm1.933 0h2.462l-1.722 2.923-.485-.155 1.393-2.372h-1.648v-.396Zm9.262 1.653a2.082 2.082 0 0 0-.177-.313c-.011-.02-.011-.037 0-.053a.084.084 0 0 1 .058-.036l.026-.005a.073.073 0 0 0 .061-.042c.009-.021.006-.043-.017-.059a4.745 4.745 0 0 0-.321-.261c-.02-.015-.029-.032-.023-.053a.068.068 0 0 1 .037-.047l.003-.004c.023-.011.044-.032.044-.055 0-.021-.021-.043-.044-.053a6.216 6.216 0 0 0-.427-.159c-.024-.009-.041-.021-.047-.042-.005-.02 0-.041.015-.053l.003-.009a.05.05 0 0 0 .011-.064.076.076 0 0 0-.066-.033 8.754 8.754 0 0 0-.474-.022.118.118 0 0 1-.067-.025c-.011-.015-.017-.036-.011-.053v-.006c.008-.022 0-.047-.023-.062-.026-.013-.052-.021-.081-.013a8.71 8.71 0 0 0-.445.119c-.023.009-.052.009-.07-.002-.026-.011-.037-.025-.037-.047v-.006a.076.076 0 0 0-.052-.051c-.029-.006-.061-.002-.078.011-.107.072-.263.173-.356.241a.078.078 0 0 1-.063.017.142.142 0 0 1-.061-.027l-.006-.009a.075.075 0 0 0-.069-.027.095.095 0 0 0-.069.031 6.237 6.237 0 0 0-.205.325.07.07 0 0 1-.053.036.11.11 0 0 1-.069-.011l-.009.004a.096.096 0 0 0-.083-.008c-.029.011-.047.03-.047.051-.008.106-.028.261-.028.36 0 .017-.009.034-.032.049-.018.011-.046.015-.07.011h-.008a.098.098 0 0 0-.081.016c-.018.02-.026.041-.018.062.041.097.107.25.154.341.008.019.008.04-.006.053-.009.019-.026.03-.055.032h-.009c-.029.004-.055.019-.066.04a.052.052 0 0 0 .014.06c.09.08.223.201.318.271a.065.065 0 0 1 .023.053.09.09 0 0 1-.037.047h-.006a.056.056 0 0 0-.041.057c0 .023.018.042.047.053l.427.154a.075.075 0 0 1 .047.043c.005.019 0 .04-.021.053l-.008.004a.05.05 0 0 0-.009.064.081.081 0 0 0 .069.036l.474.017c.023 0 .047.01.061.025.014.013.02.034.014.053l-.002.011c-.012.021 0 .044.023.059s.049.021.083.015l.451-.125a.166.166 0 0 1 .064.004c.02.006.032.025.037.038l.009.03c.006.021.029.038.058.044.026.009.06 0 .078-.012l.335-.248c.017-.015.04-.017.064-.017.023.002.046.012.057.027l.009.011c.015.021.041.032.075.032a.092.092 0 0 0 .07-.036l.208-.344a.077.077 0 0 1 .043-.032.105.105 0 0 1 .061 0l.055.02c.023.006.054.006.075-.009.023-.011.037-.032.037-.053v-.356c0-.036.035-.059.078-.059h.093c.023 0 .052-.011.078-.079Zc.005.038.011.017 0 0Zm-13.694-1.689c.348 0 .636.139.864.417.229.277.344.63.344 1.058 0 .438-.115.794-.344 1.068a1.094 1.094 0 0 1-.884.412c-.37 0-.666-.135-.888-.403-.223-.269-.335-.625-.335-1.068 0-.44.115-.797.344-1.071a1.12 1.12 0 0 1 .899-.413ZM38.462 96.47c-.205 0-.373-.128-.373-.284 0-.155.168-.282.373-.282s.373.127.373.282c0 .156-.168.284-.373.284Zm1.763-.106a2.6 2.6 0 0 0-.176-.316c-.015-.017-.015-.036 0-.053.008-.017.031-.032.055-.036l.028-.002a.09.09 0 0 0 .061-.043c.009-.021.003-.042-.02-.061a4.922 4.922 0 0 0-.321-.261c-.017-.015-.029-.032-.023-.053a.082.082 0 0 1 .038-.047l.005-.002c.023-.01.041-.031.041-.057 0-.021-.018-.042-.041-.053-.127-.049-.309-.121-.43-.159-.023-.006-.041-.021-.046-.042a.062.062 0 0 1 .014-.053l.006-.007c.017-.019.023-.042.008-.063a.078.078 0 0 0-.066-.036c-.139-.007-.344-.021-.474-.021a.099.099 0 0 1-.063-.026.05.05 0 0 1-.015-.053v-.006c.009-.021 0-.047-.023-.06a.103.103 0 0 0-.078-.014c-.133.031-.327.08-.448.12-.023.007-.052.007-.069-.004-.023-.01-.038-.025-.038-.046v-.007a.07.07 0 0 0-.052-.049c-.026-.008-.061-.004-.078.011-.107.07-.26.172-.352.24a.092.092 0 0 1-.067.017.108.108 0 0 1-.061-.028l-.002-.006a.088.088 0 0 0-.073-.03.098.098 0 0 0-.069.032 7.096 7.096 0 0 0-.205.326.062.062 0 0 1-.049.034.11.11 0 0 1-.07-.011l-.011.005a.098.098 0 0 0-.084-.007c-.026.011-.046.028-.046.049-.009.106-.026.261-.026.36 0 .017-.012.036-.035.049a.106.106 0 0 1-.069.011h-.009c-.029-.007-.061 0-.078.019-.02.017-.029.038-.02.059.043.1.107.252.153.344.011.017.011.038-.003.053-.009.017-.029.027-.058.031h-.008c-.026.005-.055.017-.064.039a.048.048 0 0 0 .012.061c.089.081.225.201.317.271a.063.063 0 0 1 .024.053.086.086 0 0 1-.038.047h-.003c-.029.011-.043.032-.043.055 0 .025.017.042.046.053l.428.157c.023.006.043.023.046.042.006.017 0 .038-.017.053l-.009.002c-.02.019-.023.043-.012.064a.085.085 0 0 0 .073.036l.473.017a.09.09 0 0 1 .061.025.061.061 0 0 1 .012.053l-.003.011a.047.047 0 0 0 .023.059.113.113 0 0 0 .084.015l.45-.123a.15.15 0 0 1 .067.002c.017.009.032.026.035.041l.011.027c.003.021.026.038.055.047.029.006.061 0 .078-.015l.335-.248a.124.124 0 0 1 .067-.017c.023.004.046.015.055.028l.008.01c.015.021.044.032.075.032a.085.085 0 0 0 .07-.034l.211-.343a.064.064 0 0 1 .04-.032.105.105 0 0 1 .061 0l.055.017c.023.008.058.008.075-.007a.059.059 0 0 0 .037-.053v-.356c0-.036.038-.061.078-.061h.096c.023 0 .049-.011.078-.076Zc.003.038.009.017 0 0Z"
        fill-rule="evenodd" fill="var(--neutral-950)" class="fills" />
    <path
        d="M53.225 60.324c-.218-.043-.795-.336-.978-.499a2.983 2.983 0 0 1-.389-.464c-.204-.29-.266-.432-.447-1.032-.065-.212-.06-1.018.029-5.091l.029-1.378-3.759 3.939c-3.67 3.844-3.767 3.939-4.182 4.154-.42.215-.435.218-1.044.218s-.629-.006-1.024-.209c-1.204-.627-1.673-2.01-1.13-3.33.129-.311.581-.801 5.97-6.468l5.829-6.132-.532-.56c-.289-.308-.543-.548-.563-.537-.017.012-1.548-1.566-3.396-3.509-1.85-1.944-3.401-3.536-3.443-3.536-.046-.003-.441-.212-.881-.464l-.799-.461-1.218-1.599c-1.508-1.984-1.648-2.172-1.648-2.227 0-.023.232-.287.515-.586l.515-.543.461.369c.586.47 2.262 1.874 2.331 1.955.031.032.237.214.463.403.389.331.426.383.841 1.189.238.464.435.873.435.908 0 .055 7.497 8.014 7.591 8.061.018.008.061-1.569.095-3.507.037-1.938.077-3.75.089-4.029.025-.537.1-4.728.105-5.81l.003-.644-.294-.069c-.778-.186-1.596-.261-2.806-.261-1.173 0-1.422.023-2.323.214-.355.076-.895.299-1.639.679-.449.229-.887.418-.973.418-.231 0-.437-.195-.437-.412 0-.168.163-.467.749-1.358.518-.786 1.837-2.268 2.512-2.822.56-.458.852-.684.883-.684a.843.843 0 0 0 .201-.137c.28-.223 1.367-.789 1.882-.983a8.362 8.362 0 0 1 1.336-.38c.237-.049 5.532-.035 5.892.014.363.053.566.296.675.821.072.331.129.47.252.595.335.345.806.371 1.144.064.146-.137.195-.238.246-.508.077-.409.229-.661.478-.792.157-.087.323-.098 1.147-.093 1.258.012 1.536.047 1.713.221.286.281.286.304.24 2.773-.051 2.538-.057 2.581-.432 2.811-.171.104-.274.113-1.387.107-1.012-.003-1.23-.018-1.373-.096-.237-.13-.386-.374-.426-.693-.046-.371-.143-.554-.403-.751a.744.744 0 0 0-.841-.07c-.249.133-.366.322-.432.687-.057.334-.163.517-.395.7-.143.11-.203.116-1.507.095l-1.359-.017-.006.945c-.003.52-.011 1.007-.02 1.085-.008.079-.028 1.189-.048 2.471-.078 5.419-.089 6.063-.115 6.637-.014.331-.008.603.014.603.023 0 .847-.844 1.828-1.876l1.788-1.877-.072-.473c-.094-.647-.045-1.731.103-2.274a5.124 5.124 0 0 1 1.293-2.233c.97-.978 2.031-1.427 3.373-1.427.492 0 1.153.104 1.473.232.134.052.1.092-1.282 1.554l-1.421 1.497.283 1.169c.154.644.289 1.175.3 1.183.012.009.524.157 1.142.331l1.121.313 1.427-1.493 1.428-1.494.06.162c.269.743.317 1.944.114 2.805a5.27 5.27 0 0 1-1.57 2.663c-.461.412-1.365.896-1.965 1.05-.475.124-1.817.142-2.166.032l-.214-.067-2.337 2.454-2.34 2.457.506.528c.444.467.515.522.59.455.08-.07.6.461 4.625 4.687 3.123 3.278 4.579 4.847 4.674 5.03.157.304.349 1.038.349 1.334a4.543 4.543 0 0 1-.08.586c-.229 1.14-1.059 1.969-2.134 2.132-.532.081-.993-.003-1.525-.273-.389-.2-.546-.357-4.371-4.368l-3.97-4.162-.003.365c-.003.2-.011.531-.02.731-.008.2-.034 1.59-.057 3.086-.02 1.497-.057 2.747-.08 2.779a.99.99 0 0 0-.08.252c-.06.308-.26.679-.532.998-.246.284-.346.363-.724.551-.426.215-1.07.299-1.55.206Zm-10.389-1.862c.786-.374.592-1.552-.272-1.618-.357-.029-.603.113-.767.438-.231.464-.088.919.367 1.163.283.151.386.153.672.017Z"
        fill="var(--neutral-950)" class="fills" />
    <path
        d="M12.327 56.267a.374.374 0 0 1-.37-.375c0-.206.166-.375.37-.375s.37.169.37.375a.374.374 0 0 1-.37.375Zm.531-6.84-.273.431c-.17.271-.339.464-.508.581-.17.114-.365.173-.585.174-.333.004-.604-.099-.814-.31-.211-.214-.318-.493-.322-.837a1.517 1.517 0 0 1 .284-.907l.686-.008c-.287.287-.429.594-.425.921.002.184.05.335.144.451a.42.42 0 0 0 .353.175.56.56 0 0 0 .352-.136c.111-.086.226-.227.345-.422l.263-.434c.301-.485.688-.73 1.162-.736.339-.004.615.1.829.31.214.209.323.482.327.82.006.389-.117.745-.37 1.068l-.766.009c.409-.31.611-.665.605-1.065a.62.62 0 0 0-.163-.437.505.505 0 0 0-.399-.175c-.258.004-.5.179-.725.527Zm-2.43-1.942.04-.56 3.657.214.121-1.77.548.034-.158 2.33-4.208-.248Zm1.09-5.084c-.08.446.002.836.247 1.17.246.331.601.533 1.064.606.447.071.846-.013 1.196-.254a1.5 1.5 0 0 0 .643-1.009 1.44 1.44 0 0 0-.261-1.155c-.251-.338-.603-.543-1.056-.614-.44-.07-.836.017-1.188.262-.353.24-.569.572-.645.994Zm1.285-5.066c-.141.432-.114.828.083 1.189.197.359.52.603.97.732.434.124.841.089 1.222-.107a1.53 1.53 0 0 0 .774-.921c.14-.421.108-.814-.094-1.178-.201-.366-.522-.613-.961-.738a1.587 1.587 0 0 0-1.214.115 1.517 1.517 0 0 0-.78.908Zm1.601-4.016-.247.538 1.213.485.261-.57c.096-.21.117-.393.063-.549-.053-.158-.179-.276-.378-.355-.398-.158-.702-.008-.912.451Zm3.175-6.66.301-.484 2.803 3.365-.063.104-3.658-.496 2.263 2.733-.065.105-4.515-.617.307-.491 3.095.429-1.925-2.308.29-.465 3.1.419-1.933-2.294Zm.961-1.189 1.446-1.781.427.305-1.079 1.33 1.025.724 1.041-1.285.433.304-1.044 1.285 1.044.739 1.113-1.373.427.305-1.477 1.82-3.356-2.373Zm3.04-2.784-.12.124.987.834.155-.158c.204-.212.325-.374.361-.484a.519.519 0 0 0 .006-.33.64.64 0 0 0-.207-.296.655.655 0 0 0-.335-.152.592.592 0 0 0-.37.065c-.119.06-.278.192-.477.397Zm3.675-4.098.559-.473-.014 2.531 3.178.104-.611.518-2.994-.09 1.399 1.44-.447.378-2.831-2.917.447-.377 1.294 1.333.02-2.447Zm1.578-1.231 1.907-1.344.324.4-1.425 1.006.771.958 1.38-.969.324.403-1.38.969.789.978 1.475-1.037.321.4-1.954 1.375-2.532-3.139Zm5.691-3.579.49-.279 2.183 3.37-.442.251-4.093-1.229 1.681 2.59-.485.277-2.183-3.371.416-.237 4.128 1.24-1.695-2.612Zm4.179.702 1.377-.564.235.504-1.377.561-.235-.501Zm4.007-3.489-.172.051.384 1.189.221-.062c.293-.083.485-.164.577-.243a.525.525 0 0 0 .186-.281.607.607 0 0 0-.011-.35.603.603 0 0 0-.56-.417c-.133-.004-.342.034-.625.113Zm3.026-1.288 2.341-.457.109.491-1.747.341.261 1.175 1.692-.33.109.493-1.689.333.27 1.195 1.804-.353.109.491-2.395.47-.864-3.849Zm6.781-.981.568-.056.448 3.914-.517.051-3.146-2.734.344 3.013-.565.056-.445-3.917.485-.048 3.173 2.759-.345-3.038Zm4.085.395c-.484-.008-.884.127-1.202.403-.314.276-.475.633-.485 1.071-.007.424.142.78.448 1.068.306.287.694.435 1.164.442.471.008.866-.13 1.185-.411.321-.282.486-.637.493-1.066a1.355 1.355 0 0 0-.453-1.059c-.308-.291-.691-.441-1.15-.448Zm5.86-.02.594.068-2.289 3.72-.135-.017-1.279-4.135.602.071.889 2.891 1.618-2.598Zm2.605 2.796-.342-1.528-.94 1.271 1.282.257Zm1.793-1.962 3.358.984-.16.479-1.403-.412-1.101 3.286-.58-.169 1.105-3.286-1.38-.403.161-.479Zm4.147 1.288.562.203-1.514 3.675-.565-.203 1.517-3.675Zm1.667.612 2.174.924-.224.456-1.623-.69-.534 1.093 1.572.668-.224.46-1.571-.668-.543 1.113 1.678.713-.223.456-2.229-.946 1.747-3.579Zm3.21 4.151 1.293.715-.301.474-1.291-.719.299-.47Zm6.439 1.778c-.376-.28-.781-.4-1.213-.361-.43.042-.792.233-1.084.575-.281.334-.394.702-.339 1.102.058.402.27.739.637 1.012.369.272.773.387 1.21.343.438-.041.8-.23 1.085-.566.277-.327.387-.692.33-1.096-.058-.406-.266-.742-.626-1.009Zm5.367 3.985.402.383-3.015 2.75-.361-.343.347-4.002-2.318 2.119-.399-.38 3.015-2.754.341.327-.35 4.036 2.338-2.136Zm1.727 2.702-.459-.558-2.487 1.781.47.572c.184.224.342.386.474.488.136.1.262.173.378.22.121.047.245.078.373.093.421.049.815-.058 1.182-.319.36-.257.559-.58.6-.969a1.461 1.461 0 0 0-.173-.82 3.531 3.531 0 0 0-.358-.488Zm2.587 2.486 1.26 1.899-.457.262-.94-1.417-1.093.634.909 1.37-.459.264-.909-1.369-1.116.645.972 1.463-.456.265-1.291-1.942 3.58-2.074Zm1.69 3.652-.081-.149-1.187.561.103.191c.138.254.255.417.353.491a.604.604 0 0 0 .33.121.705.705 0 0 0 .367-.074.608.608 0 0 0 .273-.236.493.493 0 0 0 .068-.347c-.017-.124-.092-.31-.226-.558Zm2.986 5.219.212.527-3.944 1.392-.212-.527 1.715-.605-.838-2.069-1.715.606-.215-.527 3.944-1.395.212.527-1.703.603.837 2.069 1.707-.601Zm.654 3.83c-.115-.438-.356-.765-.723-.981-.365-.216-.775-.272-1.231-.169-.443.102-.774.327-.992.677-.22.349-.275.736-.166 1.161.11.426.353.748.728.966.373.22.782.279 1.228.178.434-.1.762-.326.984-.679.222-.352.279-.736.172-1.153Zm1.56 5.819.072.561-2.378.262c-.321.034-.567.038-.737.012a1.65 1.65 0 0 1-.43-.116 1.316 1.316 0 0 1-.322-.206c-.323-.278-.516-.667-.579-1.166-.065-.509.025-.934.27-1.274.076-.102.164-.191.263-.268.104-.077.231-.145.382-.206.153-.058.399-.105.737-.14l2.369-.263.072.564-2.378.259c-.394.044-.661.116-.803.217a.936.936 0 0 0-.324.426 1.26 1.26 0 0 0-.063.623c.042.33.169.591.381.78.115.1.243.166.385.198.141.033.377.032.708-.003l2.375-.26Zm-.378 3.072-.003-.704-3.135.008v.722c.001.281.022.5.063.656.044.156.096.286.157.389.065.105.145.201.239.288.302.276.683.414 1.144.414.453-.002.822-.147 1.107-.434a1.5 1.5 0 0 0 .396-.75c.021-.122.032-.318.032-.589Zm-82.439 7.601a3.791 3.791 0 0 0-.175-.417.062.062 0 0 1 0-.071.083.083 0 0 1 .054-.048l.029-.003a.08.08 0 0 0 .06-.056c.009-.028.003-.056-.02-.082a5.45 5.45 0 0 0-.318-.346.087.087 0 0 1-.023-.071.123.123 0 0 1 .037-.062l.006-.003a.088.088 0 0 0 .04-.076.086.086 0 0 0-.04-.07 5.578 5.578 0 0 0-.425-.211c-.023-.012-.043-.029-.046-.057a.096.096 0 0 1 .012-.07l.005-.012a.08.08 0 0 0 .009-.084c-.014-.028-.037-.045-.063-.045-.141-.011-.341-.028-.47-.028a.088.088 0 0 1-.066-.034c-.015-.02-.018-.048-.015-.071v-.008a.08.08 0 0 0-.023-.082c-.023-.017-.051-.028-.077-.017-.129.043-.324.107-.445.158a.068.068 0 0 1-.069-.003c-.023-.014-.037-.034-.037-.062v-.008a.087.087 0 0 0-.049-.068.09.09 0 0 0-.08.014c-.106.096-.258.231-.35.322-.02.016-.043.028-.066.022a.12.12 0 0 1-.06-.037l-.003-.011c-.014-.022-.043-.042-.069-.036a.091.091 0 0 0-.072.042 7.407 7.407 0 0 0-.2.434c-.012.022-.029.042-.052.045a.083.083 0 0 1-.069-.014l-.008.005a.078.078 0 0 0-.084-.008c-.028.014-.046.037-.046.065-.011.141-.028.346-.028.479a.08.08 0 0 1-.032.065c-.02.014-.046.019-.071.014h-.009a.07.07 0 0 0-.078.025.083.083 0 0 0-.02.079c.043.133.107.333.155.457a.075.075 0 0 1-.005.07c-.009.023-.029.037-.055.042h-.011a.08.08 0 0 0-.064.051c-.008.028-.005.062.015.079.086.11.221.268.312.363.021.017.023.043.023.071a.086.086 0 0 1-.037.059h-.003c-.028.014-.043.042-.043.076 0 .034.02.057.046.071l.425.205a.093.093 0 0 1 .048.057c.003.025 0 .053-.02.07l-.008.006a.075.075 0 0 0-.009.084.073.073 0 0 0 .069.048l.47.023a.08.08 0 0 1 .061.034c.014.017.017.045.014.07l-.006.014a.077.077 0 0 0 .023.079c.023.02.052.028.083.02l.448-.166a.132.132 0 0 1 .066.005c.017.009.031.034.037.051l.009.039c.003.029.028.051.054.06.029.011.06 0 .081-.017l.329-.33c.021-.02.043-.023.066-.023.023.003.046.017.055.037l.009.014a.08.08 0 0 0 .074.042.077.077 0 0 0 .069-.048l.209-.453c.009-.02.023-.04.04-.043.021-.011.044-.011.061 0l.057.023c.023.008.055.008.072-.008a.086.086 0 0 0 .037-.071v-.476a.08.08 0 0 1 .08-.079h.092c.023 0 .049-.014.078-.104Zc.005.053.008.025 0 0Zm-3.13-13.789c.109-.602.403-1.069.881-1.404.48-.336 1.026-.456 1.638-.36.614.097 1.085.379 1.414.845.329.466.438 1.005.327 1.618-.105.586-.393 1.043-.864 1.372-.474.325-1.013.44-1.617.344-.622-.098-1.101-.375-1.437-.832-.335-.456-.449-.984-.342-1.583Zm1.302-5.138c.192-.582.547-1.01 1.068-1.282.522-.274 1.08-.327 1.675-.158.594.171 1.023.508 1.285 1.012.26.502.291 1.049.094 1.643a2.08 2.08 0 0 1-1.049 1.254c-.515.265-1.065.313-1.65.144-.602-.171-1.038-.504-1.308-.998-.268-.494-.306-1.032-.115-1.615Zm5.058-1.468-3.881-1.55.524-1.15c.159-.345.386-.581.68-.707.293-.126.608-.121.947.014.225.09.4.223.525.397.126.175.187.37.183.584-.007.214-.089.492-.243.834l-.178.386 1.683.671-.24.521Zm6.494-10.182-3.127-2.64.709-.733c.286-.295.591-.463.915-.505.325-.041.621.051.889.277.181.154.298.329.35.527a.974.974 0 0 1-.058.617c.157-.038.335-.054.534-.048.201.007.52.05.958.127.275.047.488.078.637.093l.373.033-.482.499-.327-.048-.063-.005-.204-.023-.353-.065-.378-.064a3.554 3.554 0 0 0-.54-.023c-.143.008-.26.026-.35.056-.09.029-.2.111-.332.248l-.107.11 1.36 1.15-.404.417Zm17.233-11.036-1.225-3.767 1.013-.288c.407-.114.761-.112 1.061.009.302.122.506.343.611.665a.97.97 0 0 1 .009.62 1.06 1.06 0 0 1-.39.501c.155.042.316.113.485.214.166.104.416.294.751.57.21.174.375.303.493.386l.302.211-.686.195-.258-.2a.389.389 0 0 0-.049-.037l-.16-.116-.27-.225-.29-.237a2.94 2.94 0 0 0-.447-.276 1.278 1.278 0 0 0-.333-.121c-.092-.019-.232-.002-.422.051l-.149.042.531 1.64-.577.163Zm13.554-5.932c.652.012 1.19.214 1.615.606.426.393.634.879.625 1.46a1.838 1.838 0 0 1-.686 1.432c-.443.372-.999.552-1.666.541-.635-.012-1.161-.211-1.578-.598a1.843 1.843 0 0 1-.608-1.44 1.883 1.883 0 0 1 .668-1.448c.434-.38.978-.564 1.63-.553Zm8.135.899.415.085.944 4.241-.605-.121-.284-1.251-1.75-.355-.786 1.034-.605-.121 2.671-3.512Zm17.939 7.846c.51.378.807.843.889 1.398.084.552-.067 1.056-.453 1.513a2.057 2.057 0 0 1-1.475.747c-.594.045-1.153-.126-1.675-.513-.497-.368-.786-.825-.866-1.37-.078-.543.074-1.039.456-1.488.39-.46.881-.717 1.472-.772.59-.054 1.141.107 1.652.485Zm3.014 8.201 3.342-2.39.866 1.054c.349.424.555.81.62 1.155.069.344.031.684-.115 1.02a1.974 1.974 0 0 1-.688.84c-.224.16-.471.273-.74.338a2.215 2.215 0 0 1-1.621-.228 2.133 2.133 0 0 1-.364-.254 5.45 5.45 0 0 1-.488-.546l-.812-.989Zm4.361 5.963 3.763-1.773.476.879c.191.355.249.682.172.981-.074.297-.272.521-.594.674-.22.103-.437.141-.651.115a1.133 1.133 0 0 1-.596-.273 1.69 1.69 0 0 1-.147.485c-.078.17-.234.434-.467.789a7.254 7.254 0 0 0-.324.521l-.17.313-.324-.6.167-.268.028-.054.095-.166.192-.287.201-.308c.099-.176.171-.329.215-.459.046-.13.069-.239.069-.327.006-.088-.036-.215-.126-.38l-.072-.13-1.638.772-.269-.504Zm7.848 7.998c.153.591.08 1.129-.218 1.612-.299.484-.75.795-1.354.932-.605.137-1.156.052-1.655-.256-.5-.306-.827-.762-.984-1.367-.149-.577-.077-1.103.218-1.578.296-.474.743-.778 1.339-.913.612-.139 1.169-.06 1.67.237.503.296.831.741.984 1.333Zm-3.047 7.78 4.208-.014.006 1.328c.002.535-.083.96-.255 1.273-.17.312-.422.561-.755.747a2.254 2.254 0 0 1-1.093.279c-.281 0-.55-.05-.808-.149a2.049 2.049 0 0 1-.68-.434 1.865 1.865 0 0 1-.459-.665 2 2 0 0 1-.129-.409 5.869 5.869 0 0 1-.032-.71l-.003-1.246Zm2.269 9.021a.374.374 0 0 1-.37-.375c0-.208.167-.377.37-.377.204 0 .37.169.37.377a.373.373 0 0 1-.37.375Zm1.75-.141a3.791 3.791 0 0 0-.175-.417c-.014-.025-.014-.048 0-.07a.076.076 0 0 1 .054-.048l.029-.006c.029-.003.052-.028.06-.056a.074.074 0 0 0-.02-.079 4.754 4.754 0 0 0-.318-.347.087.087 0 0 1-.023-.07.114.114 0 0 1 .037-.062l.006-.006a.087.087 0 0 0 .04-.073.089.089 0 0 0-.04-.071 6.199 6.199 0 0 0-.425-.211c-.022-.011-.043-.028-.045-.056a.098.098 0 0 1 .011-.071l.006-.011a.075.075 0 0 0 .008-.085c-.014-.028-.037-.045-.063-.045-.14-.011-.341-.028-.47-.028-.023 0-.046-.014-.066-.034-.014-.019-.017-.048-.014-.07v-.009a.08.08 0 0 0-.023-.081c-.023-.017-.052-.028-.078-.017a6.441 6.441 0 0 0-.444.158.068.068 0 0 1-.069-.003c-.023-.014-.038-.034-.038-.062v-.009a.085.085 0 0 0-.048-.067.088.088 0 0 0-.081.014c-.106.096-.258.231-.35.321-.02.017-.043.028-.066.023a.125.125 0 0 1-.06-.037l-.003-.011c-.014-.023-.043-.043-.069-.037a.082.082 0 0 0-.068.042 7.124 7.124 0 0 0-.204.432.072.072 0 0 1-.052.047.084.084 0 0 1-.069-.014l-.008.006a.075.075 0 0 0-.083-.011c-.029.014-.046.039-.046.067a6.714 6.714 0 0 0-.029.479.08.08 0 0 1-.031.065c-.021.014-.046.02-.069.014h-.012c-.026-.008-.06 0-.077.023-.017.025-.029.053-.017.082.04.132.106.332.152.456.008.023.008.051-.006.071-.009.022-.029.036-.055.042h-.011c-.026.003-.055.022-.063.051-.009.028-.006.062.014.078.086.11.221.268.313.364.02.017.023.042.023.07a.088.088 0 0 1-.038.06h-.002c-.029.014-.043.042-.043.076 0 .034.02.056.045.07l.425.206a.087.087 0 0 1 .049.056c.003.026 0 .054-.02.071l-.009.005a.077.077 0 0 0-.009.085c.015.028.038.048.069.048l.471.022c.023 0 .046.014.06.034.014.017.017.045.014.071l-.005.014a.075.075 0 0 0 .023.079c.022.019.051.028.083.019l.447-.166a.122.122 0 0 1 .066.006c.017.008.032.034.037.05l.009.04a.082.082 0 0 0 .055.059c.028.011.06 0 .08-.017l.333-.33c.017-.019.04-.022.063-.022.023.003.046.017.054.037l.012.014c.011.028.04.042.071.042.029 0 .058-.02.069-.048l.21-.454c.008-.019.023-.039.04-.042a.059.059 0 0 1 .06 0l.057.023c.023.008.055.008.072-.009a.083.083 0 0 0 .037-.07v-.477a.08.08 0 0 1 .081-.079h.092c.022 0 .051-.014.077-.104Zc.006.054.009.026 0 0Z"
        fill-rule="evenodd" fill="var(--neutral-950)" class="fills" />
</svg>