<svg viewBox="0 0 128 128" xmlns="http://www.w3.org/2000/svg" style="isolation:isolate">
    <path
        d="M120.688 73.341c.449-3.044.682-6.165.682-9.341 0-33.502-25.906-60.658-57.862-60.658-15.348 0-30.066 6.391-40.916 17.767C11.741 32.485 5.644 47.913 5.644 64c0 3.147.232 6.271.691 9.341h3.396a59.842 59.842 0 0 1-.749-9.431c0-31.593 24.435-57.208 54.571-57.208 30.137 0 54.571 25.615 54.571 57.208 0 3.182-.255 6.336-.749 9.431h3.313zm-6.04 19.06c-9.716 19.188-28.974 32.257-51.14 32.257-15.348 0-30.066-6.391-40.916-17.767a60.48 60.48 0 0 1-10.214-14.49h3.855a56.84 56.84 0 0 0 8.735 11.962c10.233 10.728 24.113 16.754 38.585 16.754 14.473 0 28.353-6.026 38.585-16.754a56.84 56.84 0 0 0 8.735-11.962h3.775zm-13.558-19.06a42.723 42.723 0 0 0 1.147-9.86c0-22.516-17.413-40.773-38.894-40.773-10.315 0-20.207 4.295-27.502 11.943-7.295 7.646-11.392 18.018-11.392 28.83 0 3.402.398 6.703 1.144 9.86h1.245a41.467 41.467 0 0 1-1.191-9.899c0-21.871 16.912-39.602 37.775-39.602 10.016 0 19.624 4.172 26.709 11.598 7.085 7.429 11.064 17.499 11.064 28.004 0 3.418-.414 6.736-1.191 9.899h1.086zm-10.328 19.06c-7.031 7.325-16.722 11.856-27.419 11.856-10.698 0-20.389-4.531-27.419-11.856h1.733c6.75 6.6 15.807 10.64 25.765 10.64 9.956 0 19.016-4.04 25.763-10.64h1.577zM5.157 82.229h2.764c.242 0 .45-.058.624-.175.173-.119.304-.289.394-.509.097-.223.145-.493.145-.811v-2.183c0-.331-.045-.611-.135-.84a1.085 1.085 0 0 0-.404-.522 1.035 1.035 0 0 0-.624-.188H5.157v-2.316H7.94c.729 0 1.35.144 1.863.431.519.281.914.699 1.185 1.252.278.547.416 1.205.416 1.972v2.627c0 .753-.138 1.399-.416 1.94a2.825 2.825 0 0 1-1.198 1.216c-.512.281-1.129.422-1.85.422H5.157v-2.316zM4 74.685h2.288v16.11H4v-16.11zm13.023 16.11c-.808 0-1.497-.153-2.066-.458a3.116 3.116 0 0 1-1.316-1.313c-.3-.572-.45-1.262-.45-2.072v-8.425c0-.809.15-1.5.45-2.072a3.047 3.047 0 0 1 1.316-1.316c.569-.303 1.258-.454 2.066-.454.806 0 1.494.151 2.066.454a2.997 2.997 0 0 1 1.303 1.316c.306.572.459 1.263.459 2.072v8.425c0 .81-.153 1.5-.459 2.072a3.064 3.064 0 0 1-1.303 1.313c-.572.305-1.26.458-2.066.458zm0-2.346c.318 0 .593-.065.822-.194a1.27 1.27 0 0 0 .522-.556c.119-.246.178-.538.178-.877v-8.174c0-.341-.059-.631-.178-.871a1.193 1.193 0 0 0-.522-.553 1.652 1.652 0 0 0-.822-.194c-.321 0-.596.065-.826.194-.23.123-.404.307-.522.553-.118.24-.177.53-.177.871v8.174c0 .339.059.631.177.877.118.24.292.425.522.556.23.129.505.194.826.194zm5.871-13.764h2.278v16.11h-2.278v-16.11zm1.065 13.794h5.318v2.316h-5.318v-2.316zm12.011-4.975 3.505-8.819h2.59l-6.191 13.327.096-4.508zm-1.842-8.819h2.33v16.11h-2.33v-16.11zm3.1 7.411 1.579-1.651 3.746 10.35h-2.58l-2.745-8.699zm6.091-7.411h2.282v16.11h-2.282v-16.11zm1.069 13.794h5.314v2.316h-5.314v-2.316zm10.154 2.316c-.75 0-1.395-.15-1.935-.45a3.017 3.017 0 0 1-1.217-1.326c-.274-.586-.411-1.288-.411-2.106V74.685h2.314V86.99c0 .46.108.815.325 1.063.216.242.525.363.924.363.408 0 .72-.121.937-.363.223-.248.335-.603.335-1.063V74.685h2.314v12.228c0 .818-.144 1.52-.431 2.106a3.012 3.012 0 0 1-1.22 1.326c-.534.3-1.179.45-1.935.45zm9.096 0c-.789 0-1.462-.149-2.022-.445a3.018 3.018 0 0 1-1.273-1.294c-.292-.563-.434-1.251-.428-2.062v-.814l2.261-.022v.782c0 .485.124.862.374 1.131.255.267.618.4 1.088.4.45 0 .796-.13 1.037-.391.249-.267.374-.643.374-1.128v-1.379c0-.341-.083-.63-.248-.868a2.078 2.078 0 0 0-.645-.597 11.108 11.108 0 0 0-1.056-.588l-.063-.019a.284.284 0 0 0-.063-.035l-.135-.064a10.393 10.393 0 0 1-1.493-.912c-.401-.305-.739-.718-1.016-1.239-.268-.519-.402-1.17-.402-1.952v-.858c0-.796.141-1.476.424-2.04a2.89 2.89 0 0 1 1.264-1.281c.553-.29 1.221-.435 2.003-.435.767 0 1.42.148 1.958.445.539.29.947.721 1.223 1.293.283.564.429 1.247.437 2.05v.858l-2.273.023v-.814c0-.5-.117-.88-.352-1.141-.235-.267-.566-.4-.993-.4-.464 0-.817.126-1.06.378-.241.246-.361.59-.361 1.033v1.02c0 .347.079.644.239.89.165.245.373.448.622.607.247.152.589.337 1.025.553.063.029.122.062.176.098.063.03.126.063.189.099a.596.596 0 0 1 .072.031.214.214 0 0 1 .072.032c.587.297 1.061.58 1.421.849.359.267.666.646.922 1.138.255.485.383 1.111.383 1.878v1.379c0 .811-.144 1.502-.434 2.072a2.914 2.914 0 0 1-1.257 1.303c-.545.29-1.209.436-1.99.436zm7.117-2.284h2.436c.398 0 .704-.104.917-.311.212-.214.319-.509.319-.886v-2.127c0-.34-.054-.627-.161-.863a1.146 1.146 0 0 0-.446-.555 1.298 1.298 0 0 0-.703-.188h-2.362v-2.27h2.33c.37 0 .654-.125.852-.376.206-.26.309-.625.309-1.096v-1.687c0-.376-.1-.667-.3-.872-.198-.208-.477-.312-.839-.312h-2.352v-2.283h2.459c.701 0 1.303.13 1.807.389.503.251.886.624 1.148 1.119.263.487.394 1.074.394 1.761v1.716c0 .504-.085.947-.255 1.33-.17.376-.411.686-.723.931-.312.244-.691.41-1.139.499.491.074.906.236 1.246.486.348.251.614.58.796.986.185.4.278.87.278 1.408v2.16c0 .701-.131 1.299-.394 1.794a2.666 2.666 0 0 1-1.116 1.141c-.49.26-1.083.39-1.778.39h-2.723v-2.284zm-1.393-13.826h2.339v16.11h-2.339v-16.11zm8.936 0h2.298v16.11h-2.298v-16.11zm1.095 13.771h5.543v2.339h-5.543v-2.339zm0-6.824h5.024v2.326h-5.024v-2.326zm0-6.947h5.543v2.338h-5.543v-2.338zm8.598 13.794h2.403c.362 0 .638-.112.83-.334.2-.229.3-.551.3-.964v-8.883c0-.415-.1-.733-.3-.954-.192-.229-.468-.343-.83-.343h-2.403v-2.316h2.51c.71 0 1.316.137 1.82.412.503.272.886.671 1.148 1.197.269.516.403 1.143.403 1.881v9.13c0 .731-.134 1.358-.403 1.881a2.757 2.757 0 0 1-1.158 1.197c-.506.274-1.112.412-1.82.412h-2.5v-2.316zm-1.523-13.794h2.342v16.11h-2.342v-16.11zm10.486 6.985h2.762c.286 0 .533-.055.741-.165.205-.11.361-.269.466-.477.111-.214.17-.476.176-.787v-1.715c0-.318-.056-.591-.167-.82a1.077 1.077 0 0 0-.475-.519 1.412 1.412 0 0 0-.741-.188h-2.762v-2.314h2.599c.808 0 1.5.144 2.075.431a2.944 2.944 0 0 1 1.32 1.251c.304.547.457 1.204.457 1.971v1.883c0 .789-.153 1.467-.457 2.036a3.03 3.03 0 0 1-1.329 1.283c-.576.296-1.264.444-2.066.444h-2.599V81.67zm-1.039-6.985h2.255v16.11h-2.255v-16.11zm3.386 8.8 2.11-.509 2.419 7.819h-2.473l-2.056-7.31zm8.359 7.31h-2.298v-16.11h2.298v16.11zm4.167 0a3.829 3.829 0 0 1-1.801-.427 3.694 3.694 0 0 1-1.345-1.208l1.653-1.579c.197.263.419.468.668.613.246.139.507.209.783.209.394 0 .693-.117.899-.35.205-.242.308-.585.308-1.031V74.685h2.327v12.524c0 .753-.138 1.4-.414 1.942a2.844 2.844 0 0 1-1.194 1.226c-.522.278-1.15.418-1.884.418zm5.535-16.11h2.29v16.11h-2.29v-16.11zm1.102 7.103h5.015v2.303h-5.015v-2.303zm0-7.103H124v2.316h-5.536v-2.316z" />
    <path
        d="M52 92.802h3.48v.41h-1.454v2.807h-.598v-2.807H52v-.41zm4.047.005h.598v3.212h-.598v-3.212zm1.523 0h.595V95.6h1.877v.419H57.57v-3.212zm4.103.41h-.513v.966h.399c.317 0 .541-.048.674-.142a.42.42 0 0 0 .203-.362c0-.308-.254-.462-.763-.462zm.044 1.375h-.557v1.018h.589c.325 0 .546-.019.662-.057a.634.634 0 0 0 .282-.184.405.405 0 0 0 .107-.268.385.385 0 0 0-.114-.268.655.655 0 0 0-.316-.182c-.138-.039-.355-.059-.653-.059zm5.184-1.785h.598v1.823c0 .246-.023.433-.07.558a1.068 1.068 0 0 1-.174.316 1.106 1.106 0 0 1-.25.223c-.329.219-.761.328-1.295.328-.542 0-.978-.109-1.308-.325a1.262 1.262 0 0 1-.253-.226 1.134 1.134 0 0 1-.168-.309c-.044-.121-.066-.311-.066-.57v-1.818h.598v1.823c0 .301.046.512.136.631a.912.912 0 0 0 .409.285c.181.071.397.106.646.106.354 0 .642-.071.864-.214a.718.718 0 0 0 .257-.271c.05-.105.076-.284.076-.537v-1.823zm2.225.391h-.18v1.015h.228c.302 0 .509-.02.621-.061a.537.537 0 0 0 .262-.179.436.436 0 0 0 .095-.276.41.41 0 0 0-.104-.273.555.555 0 0 0-.295-.174c-.124-.035-.333-.052-.627-.052zm-.775 2.821v-3.212h1.045c.422 0 .755.081 1 .243.249.16.374.377.374.652 0 .187-.06.349-.181.485a1.097 1.097 0 0 1-.522.306c.133.068.263.16.389.276.129.116.309.319.539.608.145.183.261.321.348.412l.222.23h-.71l-.183-.211-.035-.041-.117-.124-.184-.236-.203-.249a2.683 2.683 0 0 0-.338-.316 1.162 1.162 0 0 0-.279-.167c-.08-.036-.219-.054-.415-.054h-.155v1.398h-.595zm-6.377 0h-1.409v-3.212h1.092c.344 0 .612.036.804.108a.989.989 0 0 1 .441.295.657.657 0 0 1 .155.433c0 .316-.212.541-.637.676.304.046.546.142.725.29.182.149.273.327.273.534 0 .164-.055.31-.165.438-.11.129-.271.234-.484.316-.212.082-.476.122-.795.122zm12.298-1.582h1.399v1.361a4.801 4.801 0 0 1-1.526.257c-.69 0-1.242-.155-1.656-.464-.412-.311-.617-.694-.617-1.149 0-.479.213-.878.639-1.197.429-.319.965-.478 1.609-.478.234 0 .457.02.668.059.211.039.478.111.801.214v.469a3.596 3.596 0 0 0-1.479-.334c-.456 0-.84.12-1.152.36-.313.239-.469.531-.469.878 0 .366.156.664.469.895.312.231.713.346 1.203.346.241 0 .527-.041.858-.124l.057-.015v-.668h-.804v-.41zM81.267 110.543c-.225 0-.411-.142-.411-.314 0-.174.186-.315.411-.315.228 0 .414.141.414.315 0 .172-.186.314-.414.314zm-28.835-1.955h2.395v.41h-1.792v.979h1.731v.413h-1.731v.996h1.85v.41h-2.453v-3.208zm4.145 1.865-.463-.212c-.287-.133-.492-.264-.616-.393a.642.642 0 0 1-.18-.448c0-.252.114-.458.343-.617.232-.157.532-.235.903-.235.353 0 .676.075.969.226v.521a1.632 1.632 0 0 0-.982-.333c-.197 0-.36.035-.488.104-.126.069-.19.159-.19.269 0 .095.046.186.138.27.095.084.246.172.453.264l.463.207c.515.233.773.53.773.893 0 .256-.113.465-.34.626-.227.161-.522.241-.886.241a2.27 2.27 0 0 1-1.14-.292v-.582c.327.314.706.471 1.137.471.188 0 .345-.04.472-.12.126-.082.189-.183.189-.304 0-.196-.185-.382-.555-.556zm1.435-1.87h3.531v.41H60.07v2.807h-.61v-2.807h-1.448v-.41zm3.535 2.704c.102 0 .19.027.263.08a.237.237 0 0 1 .109.198c0 .077-.036.141-.109.193a.432.432 0 0 1-.263.078.425.425 0 0 1-.26-.078.231.231 0 0 1-.106-.193c0-.079.035-.145.106-.198a.42.42 0 0 1 .26-.08zm3.069.068h1.609v.445H63.55v-.033l.257-.226c.396-.375.711-.693.944-.954.238-.259.392-.455.462-.588a.823.823 0 0 0 .109-.396.53.53 0 0 0-.205-.436c-.135-.11-.314-.165-.536-.165-.169 0-.337.039-.504.116-.163.075-.31.182-.44.32v-.584a1.893 1.893 0 0 1 1.014-.306c.371 0 .675.093.912.28.24.187.36.424.36.711 0 .129-.03.267-.09.415a2.099 2.099 0 0 1-.315.506c-.152.19-.409.45-.77.78l-.132.115zm3.4-2.371za.641.641 0 0 0-.584.327c-.135.215-.202.509-.202.881 0 .38.066.677.199.892.135.217.319.325.552.325.233 0 .417-.108.552-.325.135-.215.202-.508.202-.878 0-.374-.065-.67-.195-.89-.129-.222-.303-.332-.524-.332zm2.771-.396h.607v3.212h-.607v-3.212zm2.148 0h2.735l-1.913 3.248-.539-.172 1.547-2.636h-1.83v-.44zm10.29 1.837a2.377 2.377 0 0 0-.196-.349c-.012-.021-.012-.04 0-.058a.096.096 0 0 1 .065-.041l.028-.004a.082.082 0 0 0 .068-.047c.01-.024.006-.047-.019-.066a5.572 5.572 0 0 0-.357-.29c-.022-.016-.032-.035-.025-.059.003-.021.019-.04.041-.052l.004-.004c.025-.012.048-.036.048-.062 0-.023-.023-.047-.048-.058a6.789 6.789 0 0 0-.476-.177c-.025-.01-.045-.024-.051-.047a.058.058 0 0 1 .016-.059l.003-.009a.055.055 0 0 0 .013-.071.086.086 0 0 0-.074-.038c-.154-.009-.382-.023-.526-.023a.125.125 0 0 1-.074-.029.067.067 0 0 1-.013-.059v-.007c.01-.023 0-.051-.026-.068-.029-.014-.057-.023-.09-.014a8.671 8.671 0 0 0-.494.132c-.026.009-.058.009-.077-.002-.029-.012-.042-.029-.042-.052v-.007a.083.083 0 0 0-.058-.057c-.032-.007-.067-.002-.086.012-.119.08-.292.193-.395.268a.09.09 0 0 1-.071.019.138.138 0 0 1-.067-.03l-.007-.01a.086.086 0 0 0-.077-.03.104.104 0 0 0-.077.035c-.074.106-.17.264-.228.36-.009.021-.032.036-.058.04a.122.122 0 0 1-.077-.012l-.009.005a.108.108 0 0 0-.093-.009c-.032.012-.052.033-.052.056-.009.118-.032.29-.032.401 0 .018-.009.037-.035.054a.124.124 0 0 1-.077.012h-.01a.112.112 0 0 0-.09.018c-.019.022-.029.045-.019.069.045.108.119.278.17.379.01.021.01.045-.006.059-.01.021-.029.033-.061.035h-.01c-.032.005-.061.021-.074.045a.06.06 0 0 0 .016.066c.1.089.248.224.353.301a.07.07 0 0 1 .026.059.093.093 0 0 1-.042.052h-.006a.063.063 0 0 0-.045.064c0 .025.019.047.051.058l.476.172a.08.08 0 0 1 .051.047.05.05 0 0 1-.022.059l-.01.005c-.019.019-.026.047-.01.071.016.023.042.04.077.04l.527.019c.026 0 .051.011.067.028a.056.056 0 0 1 .016.059l-.003.011c-.013.024 0 .05.026.066a.118.118 0 0 0 .093.017l.501-.139a.176.176 0 0 1 .07.005c.023.007.036.028.042.042l.01.033c.006.024.032.042.064.049.029.01.067 0 .087-.014l.372-.275c.019-.017.045-.019.071-.019a.093.093 0 0 1 .064.031l.01.011c.016.024.045.036.083.036a.1.1 0 0 0 .077-.04l.231-.382c.01-.014.026-.031.048-.035a.113.113 0 0 1 .068 0l.061.021c.026.007.061.007.083-.009.026-.012.042-.036.042-.059v-.396c0-.04.039-.066.087-.066h.103c.025 0 .057-.012.086-.087zc.007.042.013.019 0 0zm-15.215-1.877c.387 0 .707.155.96.464.255.308.382.699.382 1.175 0 .487-.127.882-.382 1.187-.253.305-.58.457-.983.457-.411 0-.739-.149-.985-.448-.249-.298-.373-.694-.373-1.187 0-.488.128-.884.382-1.189.257-.306.59-.459.999-.459zm-21.274 1.983c-.228 0-.414-.141-.414-.316 0-.172.186-.313.414-.313.228 0 .414.141.414.313 0 .175-.186.316-.414.316zm1.958-.118a2.597 2.597 0 0 0-.196-.351c-.016-.019-.016-.04 0-.059a.096.096 0 0 1 .061-.04l.033-.002a.1.1 0 0 0 .067-.047c.01-.024.003-.047-.022-.068a5.427 5.427 0 0 0-.357-.29c-.019-.017-.032-.035-.026-.059a.096.096 0 0 1 .042-.052l.007-.002c.025-.012.045-.035.045-.064 0-.023-.02-.047-.045-.059-.142-.054-.344-.134-.479-.176-.025-.007-.045-.024-.051-.047-.003-.019 0-.043.016-.059l.006-.007c.02-.021.026-.047.01-.071a.09.09 0 0 0-.074-.04c-.154-.007-.382-.024-.526-.024a.11.11 0 0 1-.071-.028.056.056 0 0 1-.016-.059v-.007a.053.053 0 0 0-.026-.066.117.117 0 0 0-.087-.016 6.913 6.913 0 0 0-.497.134c-.026.007-.058.007-.077-.005-.026-.011-.042-.028-.042-.051v-.007a.076.076 0 0 0-.058-.055c-.029-.009-.067-.004-.086.012a11.5 11.5 0 0 0-.392.266.092.092 0 0 1-.074.019.105.105 0 0 1-.067-.031l-.004-.007a.096.096 0 0 0-.08-.033.11.11 0 0 0-.077.036c-.071.106-.17.264-.228.362a.069.069 0 0 1-.055.038.118.118 0 0 1-.077-.012l-.012.005a.11.11 0 0 0-.094-.007c-.028.012-.051.031-.051.054-.01.118-.029.29-.029.401 0 .018-.013.04-.038.054a.125.125 0 0 1-.077.011h-.01c-.032-.007-.067 0-.087.022-.022.018-.032.042-.022.066.048.11.119.28.17.381.013.019.013.043-.003.059-.01.019-.032.031-.064.035h-.01c-.029.005-.061.019-.071.043a.055.055 0 0 0 .013.068c.1.09.251.224.353.301a.07.07 0 0 1 .026.059.088.088 0 0 1-.042.052h-.003c-.032.012-.048.035-.048.061 0 .029.019.047.051.059l.475.175c.026.007.049.025.052.047.006.018 0 .042-.019.059l-.01.002c-.023.021-.026.047-.013.071.016.023.042.04.08.04l.527.018c.026 0 .051.012.067.029.013.016.02.04.013.059l-.003.011c-.01.024 0 .052.026.066a.121.121 0 0 0 .093.017l.501-.137a.15.15 0 0 1 .073.002c.02.01.036.029.039.045l.013.031c.003.023.029.042.061.052.032.007.067 0 .087-.017l.372-.275a.136.136 0 0 1 .074-.019c.026.005.051.016.061.03l.009.012c.017.024.049.036.084.036a.094.094 0 0 0 .077-.038l.234-.382a.079.079 0 0 1 .045-.035.113.113 0 0 1 .068 0l.061.019c.025.009.064.009.083-.007.026-.012.042-.036.042-.059v-.396c0-.04.042-.068.087-.068h.106c.025 0 .054-.012.086-.085zc.004.043.01.019 0 0zM63.139 70.369c-.242-.048-.884-.373-1.087-.554a3.302 3.302 0 0 1-.432-.516c-.226-.322-.296-.48-.496-1.147-.073-.235-.067-1.131.031-5.656l.032-1.531-4.176 4.377c-4.078 4.27-4.186 4.376-4.647 4.615-.467.238-.483.242-1.16.242-.677 0-.699-.007-1.137-.232-1.338-.697-1.86-2.234-1.256-3.7.143-.345.645-.89 6.633-7.187l6.477-6.813-.591-.622c-.321-.342-.604-.609-.626-.597-.019.013-1.719-1.74-3.772-3.899-2.057-2.16-3.779-3.929-3.827-3.929-.051-.003-.489-.235-.979-.516l-.887-.512-1.354-1.776c-1.674-2.204-1.83-2.414-1.83-2.475 0-.026.257-.319.572-.651l.572-.603.512.41c.651.522 2.514 2.082 2.59 2.172.035.035.264.238.515.448.432.367.473.425.934 1.321.264.516.483.97.483 1.009 0 .061 8.33 8.905 8.435 8.956.019.01.067-1.743.105-3.896.042-2.153.086-4.167.099-4.477.028-.596.111-5.253.117-6.455l.003-.716-.327-.077c-.864-.206-1.773-.29-3.118-.29-1.303 0-1.579.026-2.58.239-.395.083-.995.332-1.822.754-.499.254-.985.464-1.08.464-.258 0-.486-.216-.486-.458 0-.187.181-.519.832-1.508.576-.874 2.041-2.52 2.791-3.136.623-.509.947-.761.982-.761a.929.929 0 0 0 .222-.151c.312-.248 1.52-.877 2.092-1.093a9.335 9.335 0 0 1 1.484-.422c.264-.055 6.147-.038 6.547.016.404.058.629.329.75.912.08.368.143.522.28.661.372.384.896.413 1.271.071.162-.151.216-.264.273-.564.086-.454.255-.735.531-.88.175-.097.359-.109 1.275-.103 1.398.013 1.706.052 1.903.245.318.313.318.338.267 3.081-.057 2.82-.063 2.868-.48 3.123-.19.116-.305.126-1.541.119-1.125-.003-1.367-.019-1.526-.106-.263-.145-.429-.416-.473-.77-.051-.413-.159-.616-.448-.835a.829.829 0 0 0-.935-.077c-.276.148-.406.357-.48.763-.063.371-.181.574-.438.777-.159.122-.226.129-1.675.106l-1.51-.019-.006 1.051a29.393 29.393 0 0 1-.022 1.205c-.01.087-.032 1.321-.054 2.746-.086 6.02-.099 6.736-.128 7.374-.015.367-.009.67.016.67.026 0 .941-.938 2.031-2.085l1.987-2.085-.08-.526c-.105-.718-.051-1.924.115-2.526a5.692 5.692 0 0 1 1.436-2.482c1.078-1.086 2.257-1.586 3.747-1.586.547 0 1.281.117 1.637.258.149.058.111.103-1.424 1.728l-1.579 1.663.314 1.299c.172.715.321 1.305.334 1.314.013.01.582.175 1.268.368l1.246.348 1.586-1.66 1.586-1.66.067.181c.298.825.352 2.159.127 3.116-.267 1.125-.9 2.205-1.745 2.959-.512.458-1.516.996-2.184 1.167-.527.138-2.018.158-2.405.035l-.239-.074-2.596 2.727-2.6 2.729.562.587c.493.519.572.58.655.506.089-.078.667.512 5.139 5.208 3.471 3.642 5.089 5.385 5.193 5.588.175.339.388 1.154.388 1.483a4.75 4.75 0 0 1-.089.651c-.254 1.266-1.176 2.188-2.371 2.369-.591.09-1.103-.004-1.694-.303-.432-.223-.607-.397-4.856-4.854l-4.411-4.625-.004.406c-.003.223-.012.59-.022.813-.009.222-.038 1.766-.063 3.429-.023 1.663-.064 3.052-.089 3.087a1.06 1.06 0 0 0-.089.281c-.067.341-.29.754-.592 1.108-.273.316-.384.403-.804.613-.473.238-1.188.332-1.722.228zM51.595 68.3c.874-.415.658-1.724-.302-1.798-.397-.032-.67.126-.851.487-.258.515-.099 1.021.406 1.292.315.168.43.171.747.019zM17.697 65.861a.416.416 0 0 1-.412-.417c0-.228.185-.416.412-.416.226 0 .411.188.411.416a.416.416 0 0 1-.411.417zm.589-7.6-.303.479c-.189.301-.377.516-.564.645a1.15 1.15 0 0 1-.65.195c-.37.004-.671-.111-.905-.345-.234-.238-.353-.548-.357-.93a1.686 1.686 0 0 1 .316-1.008l.761-.009c-.318.319-.476.66-.471 1.023a.786.786 0 0 0 .159.501.467.467 0 0 0 .392.195.628.628 0 0 0 .392-.151c.123-.096.251-.252.382-.469l.294-.483c.333-.538.763-.811 1.29-.817.376-.004.684.111.921.345.238.231.36.535.364.911.006.432-.131.827-.411 1.187l-.851.009c.454-.345.679-.739.672-1.184a.692.692 0 0 0-.181-.485.563.563 0 0 0-.443-.194c-.287.004-.556.199-.807.585zm-2.699-2.157.044-.623 4.064.238.134-1.967.609.038-.176 2.59-4.675-.276zm1.211-5.649c-.089.495.002.928.274 1.3.274.367.668.591 1.182.673.497.079.941-.015 1.329-.282.389-.267.627-.641.714-1.121.085-.482-.011-.91-.29-1.284-.278-.375-.669-.603-1.173-.682a1.749 1.749 0 0 0-1.319.291 1.64 1.64 0 0 0-.717 1.105zm1.428-5.63c-.158.48-.127.921.092 1.322.219.398.578.67 1.077.814.483.138.935.098 1.358-.119.421-.217.708-.559.861-1.024.155-.468.12-.904-.106-1.309-.223-.407-.579-.681-1.067-.82a1.764 1.764 0 0 0-1.348.128 1.679 1.679 0 0 0-.867 1.008zm1.778-4.462-.274.598 1.348.539.29-.633c.106-.233.13-.437.07-.61-.059-.176-.199-.307-.42-.395-.442-.175-.78-.008-1.014.501zm3.528-7.399.335-.538 3.114 3.738-.07.116-4.064-.551 2.515 3.037-.074.116-5.016-.686.341-.544 3.439.476-2.139-2.565.322-.517 3.445.467-2.148-2.549zm1.068-1.321 1.606-1.979.475.338-1.198 1.478 1.138.805 1.157-1.428.481.338-1.16 1.428 1.16.82 1.236-1.525.475.338-1.641 2.023-3.729-2.636zm3.378-3.094-.134.138 1.097.927.172-.176c.227-.236.361-.415.402-.538a.577.577 0 0 0 .006-.367.704.704 0 0 0-.23-.328.721.721 0 0 0-.372-.169.66.66 0 0 0-.412.072c-.131.066-.308.214-.529.441zm4.083-4.553.622-.526-.016 2.812 3.531.116-.679.576-3.327-.1 1.555 1.6-.497.42-3.146-3.241.497-.42 1.438 1.481.022-2.718zm1.753-1.368 2.119-1.494.361.445-1.584 1.118.857 1.064 1.533-1.077.36.448-1.533 1.077.877 1.087 1.638-1.153.357.445-2.171 1.528-2.814-3.488zm6.323-3.977.545-.31 2.426 3.745-.491.279L38.069 21l1.868 2.877-.539.307-2.426-3.745.463-.263 4.586 1.378-1.884-2.903zm4.644.78 1.53-.626.261.56-1.53.623-.261-.557zm4.452-3.877-.191.057.427 1.321.246-.069c.325-.092.538-.181.64-.269a.583.583 0 0 0 .208-.313.686.686 0 0 0-.243-.714.663.663 0 0 0-.392-.138c-.148-.004-.38.038-.695.125zm3.363-1.431 2.601-.507.121.545-1.941.379.29 1.306 1.88-.367.121.548-1.877.37.3 1.327 2.004-.391.122.545-2.662.523-.959-4.278zm7.534-1.089.631-.063.498 4.349-.574.057-3.496-3.037.382 3.347-.628.062-.494-4.352.539-.053 3.525 3.065-.383-3.375zm4.539.438c-.538-.008-.983.141-1.336.448-.348.307-.528.703-.538 1.19-.009.472.157.867.497 1.187.34.319.771.483 1.294.491.523.009.961-.144 1.316-.457.357-.313.54-.708.548-1.184a1.508 1.508 0 0 0-.503-1.177c-.342-.324-.768-.489-1.278-.498zm6.511-.022.66.075-2.543 4.134-.15-.019-1.422-4.594.67.079.988 3.212 1.797-2.887zm2.894 3.106-.379-1.697-1.046 1.413 1.425.284zm1.992-2.179 3.732 1.093-.178.532-1.559-.457-1.224 3.651-.643-.188 1.227-3.651-1.533-.448.178-.532zm4.609 1.431.624.226-1.682 4.083-.628-.226 1.686-4.083zm1.851.68 2.416 1.027-.248.507-1.804-.767-.593 1.215 1.747.742-.249.51-1.747-.742-.602 1.237 1.865.792-.249.507-2.476-1.052 1.94-3.976zm3.567 4.612 1.437.795-.334.526-1.435-.798.332-.523zm7.155 1.976c-.418-.311-.868-.445-1.348-.401a1.76 1.76 0 0 0-1.205.639c-.312.371-.438.779-.376 1.224.064.447.3.821.708 1.124.41.303.858.43 1.345.382a1.738 1.738 0 0 0 1.204-.629c.308-.364.431-.77.367-1.218-.064-.451-.295-.825-.695-1.121zm5.963 4.427.446.426-3.349 3.056-.402-.382.386-4.446-2.575 2.355-.443-.423 3.349-3.059.38.363-.389 4.484 2.597-2.374zm1.919 3.003-.51-.62-2.763 1.979.522.636c.204.248.38.429.526.541.151.111.291.192.421.245.134.052.272.086.414.103.468.054.905-.064 1.313-.354.4-.286.622-.645.667-1.077a1.447 1.447 0 0 0-.032-.485 1.65 1.65 0 0 0-.16-.426 3.965 3.965 0 0 0-.398-.542zm2.875 2.762 1.399 2.11-.507.292-1.045-1.575-1.215.704 1.011 1.522-.51.294-1.01-1.522-1.24.717 1.08 1.626-.507.294-1.434-2.158 3.978-2.304zm1.877 4.058-.089-.166-1.32.623.115.213c.153.282.284.463.392.545a.674.674 0 0 0 .367.135.785.785 0 0 0 .407-.082.668.668 0 0 0 .303-.263.55.55 0 0 0 .077-.385c-.019-.138-.103-.345-.252-.62zm3.318 5.799.236.586-4.383 1.546-.236-.585 1.906-.673-.93-2.299-1.906.673-.239-.585 4.382-1.55.236.586-1.893.67.93 2.298 1.897-.667zm.726 4.255c-.127-.486-.395-.849-.803-1.089-.406-.24-.861-.303-1.367-.188-.493.113-.861.363-1.103.751-.244.389-.306.819-.185 1.29.124.474.393.832.81 1.074.414.245.869.31 1.364.198.482-.111.847-.363 1.093-.755.247-.39.31-.817.191-1.281zm1.734 6.466.08.623-2.642.292c-.357.037-.63.041-.819.012a1.837 1.837 0 0 1-.478-.128 1.458 1.458 0 0 1-.357-.229c-.359-.309-.574-.741-.644-1.296-.072-.566.027-1.038.299-1.415.085-.113.183-.212.294-.298.114-.085.256-.162.424-.228.17-.065.443-.117.819-.157l2.632-.291.08.626-2.642.288c-.438.048-.735.128-.893.241a1.036 1.036 0 0 0-.36.473c-.078.2-.102.431-.07.692.047.367.188.657.424.867.128.111.27.184.427.22.157.037.42.036.787-.004l2.639-.288zm-.42 3.413-.004-.782-3.483.009v.802c.002.313.025.556.07.729.049.173.107.317.175.432.072.117.161.224.265.32.335.307.759.46 1.271.46.504-.002.914-.163 1.231-.482.117-.117.213-.252.29-.404.074-.151.124-.294.15-.429.023-.136.035-.354.035-.655zm-91.599 8.445a4.244 4.244 0 0 0-.195-.463.07.07 0 0 1 0-.078.096.096 0 0 1 .061-.054l.032-.003a.09.09 0 0 0 .067-.062.09.09 0 0 0-.023-.091 5.569 5.569 0 0 0-.353-.385.097.097 0 0 1-.026-.079.127.127 0 0 1 .042-.068l.006-.004a.1.1 0 0 0 .045-.084.097.097 0 0 0-.045-.078 6.085 6.085 0 0 0-.472-.235c-.025-.013-.048-.032-.051-.063a.107.107 0 0 1 .013-.078l.006-.013a.09.09 0 0 0 .01-.094c-.016-.031-.042-.05-.07-.05-.156-.012-.38-.031-.523-.031a.098.098 0 0 1-.073-.038.114.114 0 0 1-.016-.078v-.009a.089.089 0 0 0-.026-.091c-.025-.019-.057-.031-.086-.019a7.97 7.97 0 0 0-.494.175.072.072 0 0 1-.076-.003c-.026-.015-.042-.037-.042-.069v-.009a.094.094 0 0 0-.054-.075.095.095 0 0 0-.089.016c-.118.106-.287.256-.389.357-.022.018-.048.031-.073.025a.136.136 0 0 1-.067-.041l-.003-.013c-.016-.025-.048-.047-.077-.04a.102.102 0 0 0-.08.047c-.07.14-.168.35-.223.482-.012.025-.031.047-.057.05a.093.093 0 0 1-.076-.016l-.01.007a.082.082 0 0 0-.092-.01c-.032.016-.051.041-.051.072-.013.157-.032.385-.032.532 0 .025-.01.054-.035.072a.102.102 0 0 1-.08.016h-.01a.079.079 0 0 0-.086.028.09.09 0 0 0-.022.088c.048.147.118.369.172.507.01.025.01.057-.006.079-.01.025-.032.04-.061.046h-.013a.09.09 0 0 0-.07.057c-.009.031-.006.069.016.088.096.122.246.297.348.403.022.019.025.047.025.079a.096.096 0 0 1-.041.065h-.003c-.032.016-.048.047-.048.085 0 .038.022.063.051.078l.471.229a.104.104 0 0 1 .055.063c.003.028 0 .059-.023.078l-.009.006a.083.083 0 0 0-.01.094.084.084 0 0 0 .077.053l.522.025c.026 0 .051.016.067.038.016.019.019.05.016.078l-.006.016c-.01.031 0 .066.025.087.026.022.058.032.093.022l.497-.184a.149.149 0 0 1 .073.006c.019.009.035.037.042.056l.009.044c.003.031.032.056.061.066.032.012.067 0 .089-.019l.367-.366c.022-.022.047-.025.073-.025.025.003.051.018.06.04l.01.016a.09.09 0 0 0 .083.047.085.085 0 0 0 .076-.053l.233-.504c.01-.022.026-.044.045-.047a.062.062 0 0 1 .067 0l.063.025c.026.009.061.009.08-.01a.093.093 0 0 0 .041-.078v-.529a.09.09 0 0 1 .09-.088h.102c.025 0 .054-.015.086-.116zc.006.06.009.029 0 0zm-3.477-15.321c.121-.668.447-1.188.978-1.559.533-.374 1.14-.507 1.82-.401.682.109 1.206.422 1.571.939.366.518.487 1.117.363 1.798-.116.651-.436 1.159-.959 1.525-.527.361-1.126.488-1.797.382-.691-.109-1.223-.417-1.597-.924-.372-.507-.498-1.094-.379-1.76zm1.446-5.708c.213-.647.608-1.122 1.186-1.425.58-.305 1.201-.363 1.861-.175.661.19 1.137.565 1.428 1.124.289.557.324 1.166.105 1.826-.206.632-.594 1.096-1.166 1.393-.572.294-1.182.347-1.833.16-.669-.19-1.153-.56-1.453-1.109-.297-.549-.34-1.147-.128-1.794zm5.619-1.631-4.312-1.723.583-1.277c.177-.384.429-.646.756-.786.325-.14.676-.135 1.052.016.25.1.445.247.583.441.14.194.208.41.204.648-.009.238-.099.547-.271.927l-.198.429 1.871.745-.268.58zm7.216-11.314-3.474-2.934.787-.814c.319-.327.658-.514 1.017-.56.361-.046.691.056.988.307.202.171.332.366.389.585.055.219.034.448-.064.686.174-.042.372-.06.593-.053.223.008.578.055 1.065.141.305.052.541.086.707.103l.414.038-.535.554-.363-.053a.51.51 0 0 0-.07-.007l-.227-.025-.392-.072-.42-.072a3.983 3.983 0 0 0-.6-.025 1.508 1.508 0 0 0-.389.063c-.099.031-.223.123-.369.275l-.118.122 1.511 1.278-.45.463zm19.149-12.261-1.361-4.187 1.125-.319c.452-.128.845-.125 1.179.009.336.136.562.382.679.739.078.244.082.474.009.689a1.169 1.169 0 0 1-.433.557c.172.046.352.126.539.238.184.115.463.326.835.633.233.194.416.337.548.429l.334.235-.761.216-.287-.223a.533.533 0 0 0-.054-.04l-.179-.129-.299-.25-.322-.263a3.285 3.285 0 0 0-.497-.307 1.448 1.448 0 0 0-.37-.135c-.102-.021-.258-.002-.469.057l-.165.047.589 1.822-.64.182zm15.059-6.592c.724.013 1.323.237 1.794.673.474.437.706.977.695 1.622a2.042 2.042 0 0 1-.762 1.591c-.493.413-1.11.614-1.851.601-.706-.012-1.29-.233-1.753-.664a2.048 2.048 0 0 1-.676-1.6c.013-.653.26-1.189.743-1.609.482-.422 1.085-.626 1.81-.614zm9.039.999.462.094 1.048 4.713-.672-.135-.316-1.39-1.944-.395-.873 1.149-.673-.134 2.968-3.902zm19.932 8.717c.567.42.897.938.988 1.554.094.613-.074 1.174-.503 1.681a2.29 2.29 0 0 1-1.639.83c-.66.05-1.281-.14-1.861-.57-.552-.409-.873-.916-.962-1.522-.088-.603.081-1.154.506-1.653a2.352 2.352 0 0 1 1.635-.858c.657-.061 1.269.119 1.836.538zm3.35 9.112 3.713-2.655.962 1.171c.387.472.617.9.689 1.284.076.382.034.76-.128 1.133a2.204 2.204 0 0 1-.765.934 2.363 2.363 0 0 1-.822.375 2.45 2.45 0 0 1-.915.047 2.376 2.376 0 0 1-.886-.3 2.404 2.404 0 0 1-.404-.282c-.109-.096-.289-.299-.542-.608l-.902-1.099zm4.844 6.626L106 36.362l.529.976c.212.395.276.758.191 1.09-.083.33-.303.579-.66.749a1.31 1.31 0 0 1-.723.128 1.265 1.265 0 0 1-.663-.304 1.862 1.862 0 0 1-.163.539c-.087.19-.26.482-.519.876a8.28 8.28 0 0 0-.36.58l-.188.347-.36-.667.185-.297c.006-.011.017-.03.031-.06l.106-.184.213-.32.223-.341a3.08 3.08 0 0 0 .239-.51c.051-.144.077-.266.077-.364.006-.098-.041-.239-.141-.422l-.079-.144-1.82.858-.3-.561zm8.72 8.887c.17.657.09 1.254-.242 1.791-.331.538-.833.884-1.504 1.036-.672.152-1.285.057-1.839-.285-.555-.34-.919-.846-1.093-1.519-.166-.64-.085-1.225.242-1.753.329-.526.825-.864 1.488-1.015.68-.154 1.299-.066 1.855.263.559.33.923.824 1.093 1.482zm-3.384 8.645 4.675-.016.007 1.475c.002.595-.093 1.067-.284 1.415a2.092 2.092 0 0 1-.838.83 2.5 2.5 0 0 1-1.215.31c-.312 0-.612-.055-.898-.166a2.282 2.282 0 0 1-.756-.482 2.078 2.078 0 0 1-.51-.739 2.168 2.168 0 0 1-.143-.454 6.536 6.536 0 0 1-.035-.789l-.003-1.384zm2.521 10.023a.415.415 0 0 1-.411-.417c0-.231.184-.419.411-.419.226 0 .411.188.411.419a.416.416 0 0 1-.411.417zm1.944-.157a4.244 4.244 0 0 0-.195-.463c-.015-.028-.015-.053 0-.078a.087.087 0 0 1 .061-.054l.032-.006c.032-.003.057-.031.067-.062a.084.084 0 0 0-.023-.088 4.955 4.955 0 0 0-.353-.385.1.1 0 0 1-.026-.079.128.128 0 0 1 .042-.068l.006-.007a.095.095 0 0 0 .045-.081.094.094 0 0 0-.045-.078 6.085 6.085 0 0 0-.472-.235c-.025-.013-.047-.032-.051-.063a.107.107 0 0 1 .013-.078l.006-.013a.083.083 0 0 0 .01-.094c-.016-.031-.041-.05-.07-.05-.156-.012-.379-.031-.523-.031-.025 0-.051-.016-.073-.038a.114.114 0 0 1-.016-.078v-.009a.087.087 0 0 0-.026-.091c-.025-.019-.057-.031-.086-.019a7.97 7.97 0 0 0-.494.175.072.072 0 0 1-.076-.003c-.026-.015-.042-.037-.042-.069v-.009a.094.094 0 0 0-.054-.075.098.098 0 0 0-.089.016c-.118.106-.287.256-.389.357-.022.018-.048.031-.073.025a.136.136 0 0 1-.067-.041l-.003-.013c-.016-.025-.048-.047-.077-.04a.091.091 0 0 0-.076.047c-.073.141-.172.35-.226.479a.081.081 0 0 1-.058.053.093.093 0 0 1-.076-.016l-.01.007c-.025-.022-.064-.029-.092-.013-.032.016-.051.044-.051.075-.013.157-.032.385-.032.532 0 .026-.01.051-.035.073a.1.1 0 0 1-.077.015h-.012a.084.084 0 0 0-.087.025c-.019.028-.031.06-.019.091.045.147.118.37.169.507.01.025.01.057-.006.079-.01.025-.032.04-.061.047h-.012a.087.087 0 0 0-.071.056c-.009.031-.006.069.016.088.096.122.246.297.348.403.022.019.025.047.025.079a.1.1 0 0 1-.041.066h-.003c-.032.015-.048.046-.048.084 0 .038.022.063.051.078l.472.229a.099.099 0 0 1 .054.063c.003.028 0 .059-.023.078l-.009.006a.085.085 0 0 0-.01.094c.016.031.042.053.077.053l.522.025c.026 0 .051.016.067.038.016.019.02.05.016.078l-.006.016c-.01.031 0 .066.025.088.026.021.058.031.093.021l.497-.184a.148.148 0 0 1 .073.006c.02.009.035.038.042.056l.009.044a.091.091 0 0 0 .15.047l.37-.366c.019-.022.045-.025.07-.025.026.003.051.018.061.04l.012.016c.013.031.045.047.08.047a.087.087 0 0 0 .077-.053l.232-.504c.01-.022.026-.044.045-.047a.062.062 0 0 1 .067 0l.063.025c.026.009.061.009.08-.01a.092.092 0 0 0 .042-.078v-.529c0-.05.041-.088.089-.088h.102c.025 0 .057-.015.086-.116zc.006.06.009.029 0 0z" />
</svg>