<svg width="120" xmlns="http://www.w3.org/2000/svg" height="120" fill="none"><defs><clipPath id="a" class="frame-clip frame-clip-def"><rect rx="0" ry="0" width="120" height="120"/></clipPath></defs><g clip-path="url(#a)"><g class="fills"><rect width="120" height="120" class="frame-background" style="fill: rgb(231, 158, 87); fill-opacity: 0;" ry="0" rx="0" fill="none"/></g><g class="frame-children"><rect rx="10" ry="10" width="120" height="120" style="fill: rgb(234, 166, 96); fill-opacity: 1;" class="fills"/><path d="M105.351 67.473a51.23 51.23 0 0 0 .545-7.473c0-26.801-20.725-48.526-46.289-48.526-12.279 0-24.053 5.113-32.734 14.213C18.193 34.788 13.315 47.131 13.315 60c0 2.518.186 5.017.553 7.473h2.717a47.896 47.896 0 0 1-.599-7.545c0-25.274 19.547-45.766 43.656-45.766 24.11 0 43.657 20.492 43.657 45.766 0 2.546-.204 5.069-.599 7.545h2.651Zm-4.833 15.247c-7.773 15.351-23.179 25.806-40.911 25.806-12.279 0-24.053-5.113-32.734-14.213a48.364 48.364 0 0 1-8.17-11.593h3.083a45.431 45.431 0 0 0 6.989 9.57c8.185 8.583 19.289 13.404 30.867 13.404s22.682-4.821 30.868-13.404a45.392 45.392 0 0 0 6.988-9.57h3.02ZM89.672 67.473c.599-2.525.917-5.167.917-7.888 0-18.013-13.93-32.618-31.115-32.618-8.252 0-16.165 3.436-22.001 9.554-5.836 6.116-9.114 14.415-9.114 23.064 0 2.721.319 5.363.915 7.888h.997a33.158 33.158 0 0 1-.954-7.919c0-17.497 13.531-31.682 30.221-31.682 8.013 0 15.699 3.338 21.367 9.279 5.668 5.943 8.851 13.999 8.851 22.403 0 2.734-.331 5.388-.953 7.919h.869ZM81.41 82.72c-5.625 5.861-13.378 9.485-21.936 9.485s-16.31-3.624-21.935-9.485h1.386c5.401 5.281 12.646 8.513 20.613 8.513 7.964 0 15.212-3.232 20.61-8.513h1.262Z" fill-rule="evenodd" fill="var(--logo-color)" style="fill: rgb(255, 255, 255); fill-opacity: 1;" class="fills"/><path d="M12.925 74.583h2.212c.193 0 .36-.047.499-.14a.886.886 0 0 0 .315-.407 1.62 1.62 0 0 0 .116-.649v-1.746c0-.265-.036-.489-.108-.672a.86.86 0 0 0-.822-.568h-2.212v-1.853h2.227c.583 0 1.08.115 1.49.345.416.225.732.559.949 1.002.221.437.332.963.332 1.577v2.102c0 .602-.111 1.119-.332 1.551-.222.426-.542.75-.959.973-.41.225-.903.338-1.48.338h-2.227v-1.853ZM12 68.548h1.831v12.888H12V68.548Zm10.418 12.888c-.646 0-1.197-.122-1.652-.366a2.49 2.49 0 0 1-1.053-1.051c-.24-.457-.36-1.01-.36-1.657v-6.74c0-.648.12-1.2.36-1.658a2.427 2.427 0 0 1 1.053-1.052c.455-.243 1.006-.364 1.652-.364.645 0 1.196.121 1.653.364.456.237.803.588 1.043 1.052.245.458.367 1.01.367 1.658v6.74c0 .647-.122 1.2-.367 1.657-.24.458-.587.808-1.043 1.051-.457.244-1.008.366-1.653.366Zm0-1.877c.255 0 .474-.051.658-.155.184-.105.323-.253.418-.445.094-.196.142-.43.142-.701v-6.54c0-.273-.048-.505-.142-.696a.961.961 0 0 0-.418-.443 1.326 1.326 0 0 0-.658-.155c-.256 0-.476.052-.66.155a.961.961 0 0 0-.418.443 1.564 1.564 0 0 0-.142.696v6.54c0 .271.048.505.142.701.095.192.234.34.418.445.184.104.404.155.66.155Zm4.697-11.011h1.823v12.888h-1.823V68.548Zm.852 11.035h4.254v1.853h-4.254v-1.853Zm9.609-3.98 2.804-7.055h2.072l-4.953 10.661.077-3.606Zm-1.474-7.055h1.864v12.888h-1.864V68.548Zm2.481 5.929 1.263-1.321 2.997 8.28h-2.065l-2.195-6.959Zm4.872-5.929h1.826v12.888h-1.826V68.548Zm.855 11.035h4.252v1.853H44.31v-1.853Zm8.124 1.853c-.6 0-1.116-.12-1.548-.36-.425-.247-.75-.6-.974-1.061-.219-.469-.329-1.03-.329-1.684v-9.783h1.851v9.844c0 .368.087.652.26.85.174.194.42.291.74.291.326 0 .576-.097.749-.291.179-.198.268-.482.268-.85v-9.844h1.851v9.783c0 .654-.115 1.215-.344 1.684-.224.461-.55.814-.977 1.061-.426.24-.942.36-1.547.36Zm7.276 0c-.63 0-1.17-.119-1.617-.356a2.424 2.424 0 0 1-1.019-1.035c-.233-.451-.347-1.001-.342-1.65v-.651l1.808-.018v.626c0 .388.1.689.3.905.204.213.494.32.87.32.361 0 .637-.104.83-.313.2-.213.299-.514.299-.902v-1.104c0-.273-.066-.504-.198-.694a1.668 1.668 0 0 0-.516-.478 8.866 8.866 0 0 0-.845-.47 3.16 3.16 0 0 1-.05-.015.258.258 0 0 0-.051-.028l-.108-.051a8.313 8.313 0 0 1-1.195-.73 2.968 2.968 0 0 1-.812-.991c-.215-.416-.322-.936-.322-1.561v-.687c0-.637.113-1.181.34-1.632a2.31 2.31 0 0 1 1.011-1.025c.442-.232.977-.348 1.602-.348.614 0 1.136.119 1.567.356.431.232.757.577.978 1.035.227.451.343.997.35 1.64v.686l-1.819.018v-.651c0-.4-.093-.704-.281-.913-.188-.213-.453-.32-.795-.32-.371 0-.653.101-.848.302-.192.197-.289.472-.289.827v.816c0 .278.064.515.191.712.133.196.299.358.498.485.198.122.471.27.82.443.051.023.097.05.141.079.05.023.101.05.151.078a.49.49 0 0 1 .058.026.16.16 0 0 1 .058.025c.469.237.848.464 1.137.679.286.214.532.517.736.91.205.388.307.889.307 1.503v1.103c0 .649-.115 1.202-.347 1.658a2.327 2.327 0 0 1-1.006 1.042c-.436.233-.967.349-1.592.349Zm5.694-1.827h1.949c.318 0 .563-.083.733-.249.17-.171.256-.407.256-.708v-1.703c0-.271-.043-.501-.13-.69a.905.905 0 0 0-.356-.443 1.03 1.03 0 0 0-.562-.151h-1.89v-1.816h1.864c.296 0 .523-.1.681-.301.165-.208.248-.5.248-.877v-1.349c0-.301-.08-.534-.24-.698-.158-.166-.382-.249-.671-.249h-1.882v-1.827h1.967c.561 0 1.043.104 1.445.311.403.201.709.499.919.895.21.39.315.859.315 1.409v1.373a2.6 2.6 0 0 1-.204 1.064 1.937 1.937 0 0 1-.578.744 2.112 2.112 0 0 1-.911.4c.392.059.724.189.996.389.279.201.492.464.638.789.148.32.222.695.222 1.126v1.728c0 .561-.105 1.039-.315 1.435-.205.396-.503.7-.893.913-.392.208-.867.312-1.422.312h-2.179v-1.827Zm-1.115-11.061h1.872v12.888h-1.872V68.548Zm7.149 0h1.839v12.888h-1.839V68.548Zm.877 11.017h4.434v1.871h-4.434v-1.871Zm0-5.459h4.019v1.86h-4.019v-1.86Zm0-5.558h4.434v1.871h-4.434v-1.871Zm6.878 11.035h1.923c.289 0 .51-.089.663-.267.16-.184.24-.44.24-.771v-7.107c0-.332-.08-.586-.24-.762-.153-.184-.374-.275-.663-.275h-1.923v-1.853h2.008c.568 0 1.053.11 1.455.329.403.218.709.538.919.958.215.413.323.915.323 1.505v7.304c0 .584-.108 1.086-.323 1.505-.215.42-.524.739-.926.957-.405.22-.89.33-1.456.33h-2v-1.853Zm-1.219-11.035h1.874v12.888h-1.874V68.548Zm8.389 5.588h2.21c.229 0 .426-.044.592-.132a.864.864 0 0 0 .373-.381c.089-.172.136-.382.141-.63v-1.372c0-.254-.044-.473-.133-.656a.856.856 0 0 0-.381-.415 1.125 1.125 0 0 0-.592-.151h-2.21v-1.851h2.079c.647 0 1.2.115 1.661.345.46.225.812.558 1.055 1.001.244.437.366.963.366 1.576v1.507c0 .631-.122 1.174-.366 1.628-.243.45-.598.792-1.063 1.027-.46.237-1.011.356-1.653.356h-2.079v-1.852Zm-.831-5.588h1.804v12.888h-1.804V68.548Zm2.709 7.04 1.688-.407 1.935 6.255h-1.978l-1.645-5.848Zm6.687 5.848h-1.839V68.548h1.839v12.888Zm3.333 0a3.054 3.054 0 0 1-1.44-.342 2.942 2.942 0 0 1-1.076-.966l1.322-1.263c.158.21.336.374.534.49.197.112.406.167.627.167.315 0 .555-.093.719-.28.164-.193.247-.468.247-.824v-9.87h1.861v10.019c0 .603-.11 1.12-.331 1.554a2.284 2.284 0 0 1-.955.981c-.418.222-.92.334-1.508.334Zm4.428-12.888h1.833v12.888h-1.833V68.548Zm.883 5.682h4.011v1.842h-4.011V74.23Zm0-5.682H108v1.853h-4.428v-1.853Z" style="fill: rgb(255, 255, 255); fill-opacity: 1;" class="fills"/><path d="M50.4 83.042h2.784v.328h-1.163v2.246h-.479V83.37H50.4v-.328Zm3.237.004h.479v2.57h-.479v-2.57Zm1.219 0h.476v2.234h1.502v.336h-1.978v-2.57Zm3.282.328h-.41v.772h.319c.254 0 .433-.038.54-.113a.338.338 0 0 0 .162-.29c0-.246-.204-.369-.611-.369Zm.036 1.1h-.446v.814h.471c.26 0 .437-.015.53-.045a.514.514 0 0 0 .225-.147.328.328 0 0 0 .086-.215c0-.078-.03-.15-.091-.215a.53.53 0 0 0-.253-.145 2.102 2.102 0 0 0-.522-.047Zm4.146-1.428h.479v1.458c0 .197-.018.346-.056.447a.864.864 0 0 1-.139.252.89.89 0 0 1-.2.179c-.263.175-.609.262-1.036.262-.434 0-.783-.087-1.046-.26a.99.99 0 0 1-.203-.181.866.866 0 0 1-.134-.247 1.446 1.446 0 0 1-.053-.456v-1.454h.479v1.458c0 .241.036.409.108.505.071.094.18.17.327.228.145.056.318.085.517.085.284 0 .514-.057.692-.172a.583.583 0 0 0 .205-.216c.04-.085.06-.228.06-.43v-1.458Zm1.781.312h-.144v.813h.182c.242 0 .407-.017.497-.049a.44.44 0 0 0 .21-.144.346.346 0 0 0 .076-.22.33.33 0 0 0-.084-.219.44.44 0 0 0-.235-.139 2.084 2.084 0 0 0-.502-.042Zm-.62 2.258v-2.57h.836c.337 0 .604.064.8.194a.593.593 0 0 1 .299.522.565.565 0 0 1-.145.388.884.884 0 0 1-.417.245c.106.054.21.127.311.22a4.4 4.4 0 0 1 .431.486c.116.147.209.257.278.33l.178.185h-.568l-.147-.17-.028-.032-.093-.1-.147-.188-.162-.2a2.205 2.205 0 0 0-.271-.252.918.918 0 0 0-.223-.134.885.885 0 0 0-.332-.044h-.124v1.12h-.476Zm-5.102 0h-1.127v-2.57h.874c.275 0 .489.029.643.086a.787.787 0 0 1 .352.236.524.524 0 0 1 .124.347c0 .252-.169.432-.509.54.243.037.437.114.58.232a.536.536 0 0 1 .218.428c0 .13-.044.247-.132.35a.941.941 0 0 1-.387.253 1.786 1.786 0 0 1-.636.098Zm9.838-1.267h1.12v1.089c-.41.137-.817.206-1.221.206-.552 0-.994-.124-1.325-.371-.329-.249-.494-.555-.494-.92 0-.383.171-.702.512-.957.343-.255.772-.382 1.287-.382.187 0 .365.015.534.047.169.031.383.088.641.171v.375a2.882 2.882 0 0 0-1.183-.267c-.365 0-.672.096-.922.288-.25.191-.375.425-.375.703 0 .292.125.531.375.716.25.184.571.277.963.277.192 0 .421-.034.686-.1l.046-.012v-.535h-.644v-.328ZM73.813 97.234c-.179 0-.328-.113-.328-.25 0-.14.149-.253.328-.253.183 0 .332.113.332.253 0 .137-.149.25-.332.25ZM50.745 95.67h1.916v.328h-1.433v.784h1.385v.33h-1.385v.797h1.48v.327h-1.963V95.67Zm3.316 1.493-.37-.17c-.229-.107-.393-.212-.493-.315a.512.512 0 0 1-.144-.358c0-.202.092-.366.275-.493.185-.126.426-.189.722-.189.282 0 .541.061.776.181v.417a1.31 1.31 0 0 0-.786-.266.824.824 0 0 0-.391.083c-.101.055-.151.127-.151.215 0 .076.037.148.11.216.076.067.196.137.362.211l.37.166c.413.186.619.424.619.714a.59.59 0 0 1-.272.501c-.182.128-.418.192-.709.192a1.81 1.81 0 0 1-.912-.233v-.465c.262.251.565.376.909.376a.693.693 0 0 0 .378-.096c.101-.065.152-.146.152-.243 0-.157-.149-.305-.445-.444Zm1.148-1.496h2.826v.327h-1.179v2.246h-.488v-2.246h-1.159v-.327Zm2.828 2.163c.083 0 .153.021.211.064a.19.19 0 0 1 .087.158c0 .061-.029.113-.087.154a.345.345 0 0 1-.211.062.34.34 0 0 1-.208-.062.185.185 0 0 1-.084-.154.19.19 0 0 1 .084-.158.334.334 0 0 1 .208-.064Zm2.456.054h1.287v.356h-2.14v-.026l.206-.181c.316-.3.568-.555.755-.763.19-.207.313-.364.37-.471a.66.66 0 0 0 .087-.317.426.426 0 0 0-.164-.348.658.658 0 0 0-.429-.132.966.966 0 0 0-.404.092c-.13.061-.247.146-.352.257v-.468c.262-.163.533-.245.812-.245.296 0 .54.075.73.225a.693.693 0 0 1 .287.569.88.88 0 0 1-.072.331c-.046.117-.13.252-.251.405-.122.152-.327.36-.617.624l-.105.092Zm2.72-1.897Za.514.514 0 0 0-.468.262c-.107.172-.161.407-.161.704 0 .304.053.542.159.714.108.174.255.26.442.26a.498.498 0 0 0 .442-.26c.107-.172.161-.406.161-.702 0-.299-.052-.537-.156-.712-.103-.178-.243-.266-.419-.266Zm2.217-.317h.485v2.57h-.485v-2.57Zm1.718 0h2.188l-1.53 2.598-.432-.137 1.238-2.108h-1.464v-.353Zm8.232 1.47a1.986 1.986 0 0 0-.156-.279c-.011-.017-.011-.032 0-.047a.075.075 0 0 1 .051-.032l.023-.004a.065.065 0 0 0 .054-.037c.008-.019.005-.038-.015-.053a4.02 4.02 0 0 0-.286-.232c-.018-.013-.025-.028-.02-.047.002-.017.015-.032.033-.042l.003-.003c.02-.01.038-.029.038-.049 0-.019-.018-.038-.038-.047a5.384 5.384 0 0 0-.38-.142c-.021-.007-.036-.019-.041-.037a.045.045 0 0 1 .012-.047l.003-.008a.044.044 0 0 0 .01-.057.07.07 0 0 0-.059-.03c-.123-.007-.305-.018-.421-.018a.104.104 0 0 1-.059-.023c-.01-.013-.016-.032-.01-.047v-.006c.007-.019 0-.041-.021-.054-.023-.012-.046-.019-.072-.012a7.086 7.086 0 0 0-.395.106c-.021.007-.047.007-.062-.002-.023-.01-.033-.023-.033-.042v-.005a.067.067 0 0 0-.047-.045c-.025-.006-.054-.002-.069.009-.095.064-.234.154-.316.215a.074.074 0 0 1-.056.015.109.109 0 0 1-.054-.025l-.006-.007a.068.068 0 0 0-.061-.025.082.082 0 0 0-.062.029 5.334 5.334 0 0 0-.182.288c-.008.017-.026.028-.046.032a.095.095 0 0 1-.062-.01l-.008.004a.083.083 0 0 0-.074-.007c-.026.009-.041.026-.041.045-.008.094-.026.232-.026.32 0 .015-.008.03-.028.043a.093.093 0 0 1-.062.01h-.008a.086.086 0 0 0-.072.015c-.015.017-.023.036-.015.055.036.086.095.222.136.303.008.017.008.036-.005.047-.008.017-.023.026-.049.028h-.008a.083.083 0 0 0-.059.036.048.048 0 0 0 .013.053c.08.071.198.179.283.241.015.013.02.028.02.047a.08.08 0 0 1-.033.042h-.005a.05.05 0 0 0-.036.05c0 .021.015.038.041.048l.38.137a.063.063 0 0 1 .041.038.04.04 0 0 1-.018.047l-.007.004c-.016.015-.021.037-.008.056a.07.07 0 0 0 .061.032l.422.015c.02 0 .041.01.054.023.012.011.018.03.012.047l-.002.009c-.01.019 0 .04.02.053a.098.098 0 0 0 .075.013l.401-.111a.127.127 0 0 1 .056.004c.018.006.028.023.034.034l.007.026c.005.019.026.034.052.04.023.007.054 0 .069-.012l.298-.22c.015-.013.036-.015.056-.015.021.002.042.011.052.024l.007.01c.013.019.036.028.067.028a.08.08 0 0 0 .062-.032l.185-.305c.008-.011.02-.025.038-.028a.083.083 0 0 1 .054 0l.049.017c.021.005.049.005.067-.008a.054.054 0 0 0 .033-.047v-.317c0-.032.031-.052.07-.052l.151-.07Zc-.049.07-.023.06 0 0Zc.005.034.01.015 0 0Zm-12.172-1.502c.31 0 .566.124.768.372.204.246.305.559.305.94 0 .389-.101.706-.305.949a.973.973 0 0 1-.786.366.973.973 0 0 1-.789-.358c-.198-.239-.298-.555-.298-.95 0-.39.102-.708.306-.951a.996.996 0 0 1 .799-.368Zm-17.019 1.587c-.183 0-.332-.113-.332-.253 0-.137.149-.25.332-.25.182 0 .331.113.331.25 0 .14-.149.253-.331.253Zm1.566-.094a2.218 2.218 0 0 0-.156-.281c-.013-.015-.013-.032 0-.047.007-.015.028-.029.049-.032l.025-.002a.077.077 0 0 0 .054-.038c.008-.019.003-.038-.018-.055a4.408 4.408 0 0 0-.285-.231c-.015-.013-.026-.029-.02-.047a.074.074 0 0 1 .033-.042l.005-.002a.056.056 0 0 0 .036-.051c0-.018-.015-.037-.036-.047-.113-.043-.275-.107-.383-.141-.02-.006-.036-.019-.041-.038-.002-.015 0-.034.013-.047l.005-.005c.016-.017.021-.038.008-.057a.07.07 0 0 0-.059-.032c-.123-.006-.306-.019-.421-.019a.092.092 0 0 1-.057-.022.048.048 0 0 1-.013-.048v-.005a.042.042 0 0 0-.02-.053c-.021-.013-.046-.019-.07-.013-.118.028-.29.071-.398.107-.02.006-.046.006-.061-.003-.021-.01-.034-.023-.034-.042v-.006a.061.061 0 0 0-.046-.043c-.023-.007-.054-.004-.069.01a8.515 8.515 0 0 0-.314.212.071.071 0 0 1-.059.015.087.087 0 0 1-.054-.024l-.002-.006a.077.077 0 0 0-.065-.026.088.088 0 0 0-.061.028 7.456 7.456 0 0 0-.183.29.055.055 0 0 1-.043.031.099.099 0 0 1-.062-.01l-.01.004a.089.089 0 0 0-.075-.006c-.023.01-.041.025-.041.044-.007.094-.023.231-.023.32 0 .015-.01.032-.031.043-.015.01-.041.013-.061.01h-.008c-.026-.006-.054 0-.069.017-.018.015-.026.033-.018.052.038.089.095.224.136.305.01.016.01.034-.003.048-.007.015-.025.024-.051.028h-.008c-.023.004-.049.015-.056.034a.043.043 0 0 0 .01.054c.08.072.2.179.282.242a.055.055 0 0 1 .021.047.069.069 0 0 1-.033.041h-.003c-.026.01-.038.028-.038.049 0 .023.015.038.041.047l.38.14c.02.005.038.02.041.037.005.015 0 .034-.016.047l-.007.002c-.018.017-.021.038-.011.057a.074.074 0 0 0 .065.032l.421.015c.02 0 .041.009.054.023.01.013.015.032.01.047l-.002.009c-.008.019 0 .041.02.053.021.013.046.019.075.013l.4-.109a.117.117 0 0 1 .059.002c.016.007.029.022.031.035l.01.025c.003.019.024.034.049.041.026.006.054 0 .07-.013l.298-.22a.102.102 0 0 1 .059-.015c.02.003.041.013.048.024l.008.01c.013.018.039.028.067.028a.074.074 0 0 0 .062-.03l.187-.306a.063.063 0 0 1 .036-.028.099.099 0 0 1 .054 0l.049.015c.02.008.051.008.067-.005.02-.01.033-.029.033-.047v-.317c0-.032.033-.055.069-.055l.154-.067Zc-.048.067-.025.058 0 0Zc.003.033.008.015 0 0Z" fill-rule="evenodd" fill="var(--logo-color)" style="fill: rgb(255, 255, 255); fill-opacity: 1;" class="fills"/><path d="M59.311 65.096c-.193-.039-.707-.3-.87-.444a2.666 2.666 0 0 1-.345-.412c-.181-.258-.237-.385-.397-.918-.059-.189-.053-.905.025-4.525l.026-1.225-3.341 3.501c-3.262 3.417-3.349 3.502-3.717 3.693-.374.19-.387.193-.928.193-.542 0-.56-.005-.911-.186-1.07-.557-1.487-1.787-1.004-2.96.114-.276.516-.711 5.306-5.749l5.182-5.451-.473-.497c-.257-.274-.483-.488-.501-.477-.015.01-1.375-1.393-3.018-3.12-1.645-1.727-3.023-3.143-3.061-3.143-.041-.002-.392-.188-.783-.412l-.709-.41-1.084-1.421c-1.34-1.764-1.464-1.931-1.464-1.98 0-.021.206-.255.458-.521l.457-.482.41.327c.521.418 2.011 1.666 2.072 1.738.028.028.211.191.412.358.345.294.378.341.747 1.058.211.412.387.776.387.807 0 .049 6.664 7.123 6.748 7.165.015.007.053-1.395.084-3.118.033-1.722.068-3.333.078-3.581.023-.477.089-4.202.094-5.164l.003-.572-.262-.062c-.691-.165-1.419-.232-2.494-.232-1.043 0-1.264.02-2.065.19-.315.067-.796.266-1.457.604-.399.203-.788.371-.864.371-.206 0-.389-.173-.389-.366 0-.15.145-.415.666-1.207.46-.698 1.632-2.016 2.232-2.508.499-.408.758-.609.786-.609a.76.76 0 0 0 .178-.121c.249-.199 1.215-.701 1.673-.874.402-.15.745-.248 1.187-.338.211-.044 4.918-.031 5.238.013.323.046.504.263.6.73.064.294.115.417.224.528.297.307.717.33 1.017.057.13-.121.173-.211.219-.451.068-.364.203-.588.424-.704.14-.077.288-.088 1.02-.083 1.119.011 1.365.042 1.523.196.254.25.254.271.213 2.465-.045 2.256-.05 2.295-.383 2.499-.153.092-.245.1-1.234.095-.9-.003-1.093-.016-1.22-.085-.211-.116-.343-.333-.379-.616-.041-.33-.127-.493-.358-.668a.664.664 0 0 0-.748-.062c-.221.119-.325.286-.384.611-.051.297-.145.459-.351.621-.127.098-.18.104-1.34.086l-1.207-.016-.006.841c-.002.461-.01.894-.017.964-.008.069-.026 1.057-.044 2.197-.068 4.816-.078 5.388-.101 5.899-.013.294-.008.536.012.536.021 0 .753-.75 1.625-1.668l1.589-1.668-.063-.421c-.084-.575-.041-1.539.091-2.021a4.545 4.545 0 0 1 1.15-1.985c.861-.869 1.805-1.269 2.997-1.269.438 0 1.025.093 1.31.206.119.047.089.083-1.139 1.382l-1.264 1.331.252 1.039c.137.572.256 1.044.267 1.052.01.008.465.139 1.014.294l.997.278 1.269-1.328 1.268-1.327.054.144c.239.66.282 1.727.101 2.493a4.68 4.68 0 0 1-1.395 2.367c-.41.366-1.213.797-1.747.933-.422.111-1.615.127-1.925.029l-.191-.06-2.077 2.182-2.08 2.183.45.47c.394.415.458.464.524.404.071-.061.534.41 4.111 4.167 2.777 2.913 4.071 4.308 4.155 4.471.14.27.31.923.31 1.186-.002.1-.033.332-.071.521-.203 1.013-.941 1.75-1.897 1.895-.473.072-.882-.003-1.355-.243-.346-.178-.486-.317-3.885-3.883l-3.529-3.7-.003.325a23.5 23.5 0 0 1-.018.65c-.007.178-.03 1.413-.05 2.743-.018 1.331-.051 2.442-.072 2.47a.93.93 0 0 0-.071.225c-.053.273-.231.603-.473.887-.218.252-.307.322-.643.489-.379.191-.951.266-1.378.184Zm-9.235-1.656c.699-.332.527-1.379-.241-1.438-.318-.026-.537.1-.682.389-.206.412-.079.817.326 1.034.251.134.343.136.597.015Z" fill="var(--logo-color)" style="fill: rgb(255, 255, 255); fill-opacity: 1;" class="fills"/><path d="M22.957 61.489a.333.333 0 0 1-.329-.333c0-.183.148-.334.329-.334.181 0 .329.151.329.334a.333.333 0 0 1-.329.333Zm.472-6.08-.242.383c-.152.241-.302.413-.452.516a.924.924 0 0 1-.52.156c-.295.003-.537-.089-.724-.276-.187-.19-.282-.438-.285-.744a1.34 1.34 0 0 1 .252-.806l.609-.008c-.255.256-.38.529-.377.819a.63.63 0 0 0 .128.401.371.371 0 0 0 .313.155.496.496 0 0 0 .314-.12c.098-.077.2-.202.306-.376l.234-.385c.267-.431.611-.649 1.033-.654.301-.004.546.088.737.275.19.186.287.429.29.729.006.346-.104.662-.328.95l-.681.007c.364-.275.543-.591.538-.947a.553.553 0 0 0-.146-.388.45.45 0 0 0-.354-.155c-.229.003-.444.159-.645.468Zm-2.16-1.726.036-.498 3.251.19.107-1.573.487.03-.14 2.072-3.741-.221Zm.969-4.519c-.071.396.002.742.219 1.04.22.294.535.473.946.538.398.064.753-.011 1.064-.225.311-.214.501-.513.571-.897a1.28 1.28 0 0 0-.232-1.027c-.223-.301-.536-.483-.939-.546a1.4 1.4 0 0 0-1.055.233 1.309 1.309 0 0 0-.574.884Zm1.142-4.504c-.125.384-.101.737.074 1.057.176.319.463.536.862.652.386.11.748.078 1.086-.096a1.36 1.36 0 0 0 .689-.819c.124-.374.096-.723-.084-1.047-.179-.325-.463-.544-.854-.656a1.411 1.411 0 0 0-1.079.103 1.346 1.346 0 0 0-.694.806Zm1.423-3.569-.219.478 1.078.431.233-.506c.085-.187.103-.35.056-.489-.048-.14-.16-.245-.337-.315-.354-.14-.624-.007-.811.401Zm2.823-5.92.268-.431 2.491 2.991-.057.093-3.25-.441 2.011 2.43-.058.093-4.014-.549.273-.436 2.751.381-1.71-2.052.257-.413 2.756.373-1.718-2.039Zm.854-1.057 1.285-1.583.38.271-.959 1.182.91.644.926-1.143.385.271-.928 1.142.928.657.989-1.22.38.27-1.313 1.618-2.983-2.109Zm2.703-2.475-.107.11.877.742.137-.14c.182-.189.289-.333.322-.431a.46.46 0 0 0 .005-.293.574.574 0 0 0-.184-.263.586.586 0 0 0-.298-.136.534.534 0 0 0-.329.058c-.105.054-.247.171-.423.353Zm3.266-3.642.497-.421-.013 2.25 2.825.092-.543.461-2.662-.08 1.245 1.28-.398.336-2.517-2.593.398-.336 1.15 1.185.018-2.174Zm1.402-1.095 1.696-1.195.288.356-1.267.894.686.852 1.226-.862.288.359-1.226.861.701.87 1.31-.922.286.355-1.736 1.223-2.252-2.791Zm5.059-3.181.436-.248 1.94 2.996-.392.223-3.639-1.092 1.494 2.302-.431.245-1.94-2.996.37-.21 3.669 1.102-1.507-2.322Zm3.715.624 1.224-.501.209.448-1.224.499-.209-.446Zm3.562-3.101-.153.045.341 1.057.197-.055c.26-.074.431-.146.512-.216a.463.463 0 0 0 .166-.25.542.542 0 0 0-.507-.682c-.119-.003-.305.03-.556.101Zm2.69-1.145 2.08-.406.097.436-1.553.303.232 1.045 1.505-.294.097.439-1.502.295.24 1.063 1.603-.314.097.436-2.129.419-.767-3.422Zm6.027-.872.505-.05.398 3.479-.459.045-2.797-2.429.306 2.677-.502.051-.396-3.482.431-.043 2.82 2.452-.306-2.7Zm3.631.351c-.43-.007-.786.112-1.068.358a1.246 1.246 0 0 0-.431.952c-.007.377.126.694.398.949.272.256.617.387 1.035.394.418.006.769-.116 1.053-.366.285-.251.432-.566.438-.947a1.207 1.207 0 0 0-.402-.942 1.465 1.465 0 0 0-1.023-.398Zm5.209-.018.528.06-2.035 3.307-.12-.015-1.137-3.675.536.063.79 2.57 1.438-2.31Zm2.315 2.485-.303-1.358-.836 1.13 1.139.228Zm1.594-1.743 2.986.874-.143.426-1.247-.366-.979 2.921-.515-.15.982-2.921-1.227-.358.143-.426Zm3.687 1.144.5.181-1.347 3.266-.502-.18 1.349-3.267Zm1.481.544 1.933.822-.199.406-1.443-.614-.474.972 1.397.593-.199.409-1.397-.594-.482.989 1.491.634-.198.406-1.982-.842 1.553-3.181Zm2.853 3.69 1.15.636-.267.421-1.148-.639.265-.418Zm5.724 1.581a1.525 1.525 0 0 0-1.078-.321 1.407 1.407 0 0 0-.964.511c-.25.297-.35.624-.301.979.051.358.24.658.566.9.328.242.687.344 1.076.305.39-.036.711-.204.964-.503a1.19 1.19 0 0 0 .293-.975c-.051-.36-.236-.659-.556-.896Zm4.771 3.542.357.34-2.68 2.445-.321-.305.308-3.558-2.06 1.884-.354-.338 2.68-2.447.303.29-.311 3.587 2.078-1.898Zm1.535 2.402-.408-.496-2.211 1.583.419.509c.163.198.303.343.42.433a1.307 1.307 0 0 0 .668.278c.374.043.724-.051 1.051-.283.319-.229.497-.516.533-.862a1.301 1.301 0 0 0-.153-.729 3.285 3.285 0 0 0-.319-.433Zm2.3 2.209 1.119 1.689-.405.233-.837-1.26-.971.563.808 1.218-.408.235-.808-1.217-.992.573.865 1.3-.406.236-1.147-1.726 3.182-1.844Zm1.502 3.247-.072-.133-1.055.498.091.171c.123.225.227.371.314.436a.527.527 0 0 0 .293.107.622.622 0 0 0 .327-.065.536.536 0 0 0 .242-.21.44.44 0 0 0 .061-.308c-.015-.11-.082-.276-.201-.496ZM96.16 43.3l.189.468-3.506 1.238-.189-.469 1.525-.538-.745-1.839-1.525.539-.191-.469 3.506-1.24.189.469-1.515.536.745 1.839 1.517-.534Zm.581 3.404a1.369 1.369 0 0 0-.642-.871c-.325-.193-.69-.243-1.094-.151-.395.09-.689.291-.882.601a1.266 1.266 0 0 0-.148 1.032c.098.38.314.666.647.86.332.195.696.248 1.092.158.385-.089.677-.29.874-.604.197-.312.248-.654.153-1.025Zm1.387 5.173.064.499-2.114.233a2.75 2.75 0 0 1-.655.01 1.455 1.455 0 0 1-.382-.103 1.18 1.18 0 0 1-.286-.183c-.287-.247-.459-.593-.515-1.037-.058-.453.022-.83.24-1.132.068-.091.146-.17.234-.238.092-.069.205-.13.339-.183.136-.052.355-.094.656-.125l2.106-.233.063.501-2.113.23c-.351.038-.589.103-.714.193a.813.813 0 0 0-.288.378 1.133 1.133 0 0 0-.057.554c.038.294.151.525.34.694a.773.773 0 0 0 .341.175c.126.03.336.029.63-.002l2.111-.231Zm-.336 2.731-.003-.627-2.787.008v.641c.002.251.021.445.056.584.039.138.086.254.141.345.057.094.128.179.211.256.269.245.608.368 1.018.368.402-.002.73-.13.984-.386.093-.093.171-.201.232-.323.059-.12.099-.234.12-.343a3.53 3.53 0 0 0 .028-.523Zm-73.279 6.755a3.412 3.412 0 0 0-.156-.37.056.056 0 0 1 0-.063.074.074 0 0 1 .048-.042l.026-.003a.074.074 0 0 0 .054-.05.075.075 0 0 0-.018-.073 5.134 5.134 0 0 0-.283-.308.076.076 0 0 1-.021-.062.113.113 0 0 1 .033-.056l.006-.002a.08.08 0 0 0 .035-.068.075.075 0 0 0-.035-.062 5.521 5.521 0 0 0-.378-.188c-.02-.01-.038-.025-.041-.05a.083.083 0 0 1 .011-.063l.005-.01c.015-.02.02-.05.007-.075-.012-.025-.033-.04-.056-.04-.125-.01-.303-.025-.418-.025-.023 0-.043-.013-.059-.03-.012-.018-.015-.043-.012-.063v-.007a.072.072 0 0 0-.021-.073c-.02-.015-.046-.025-.069-.015a5.928 5.928 0 0 0-.395.14.06.06 0 0 1-.061-.002c-.02-.013-.033-.03-.033-.055v-.008a.08.08 0 0 0-.043-.06.078.078 0 0 0-.072.012c-.094.086-.229.206-.311.286-.018.015-.038.025-.059.02a.102.102 0 0 1-.053-.033l-.003-.01c-.012-.02-.038-.037-.061-.032a.082.082 0 0 0-.064.037 7.121 7.121 0 0 0-.178.386c-.01.02-.026.038-.046.04a.076.076 0 0 1-.061-.012l-.008.005a.067.067 0 0 0-.074-.008c-.025.013-.041.033-.041.058-.01.125-.025.308-.025.426a.07.07 0 0 1-.028.057.08.08 0 0 1-.064.013h-.008a.061.061 0 0 0-.068.022.073.073 0 0 0-.018.071c.038.117.094.295.137.405a.067.067 0 0 1-.005.063c-.007.02-.025.033-.048.038h-.01a.067.067 0 0 0-.056.045c-.008.025-.005.055.012.07.077.098.197.238.278.323.018.015.021.038.021.063a.082.082 0 0 1-.033.052h-.003c-.025.013-.038.038-.038.068 0 .03.018.05.041.062l.377.183c.02.01.038.03.043.05.003.023 0 .048-.018.063l-.007.005a.066.066 0 0 0-.008.075c.01.025.033.043.061.043l.418.02c.021 0 .041.012.054.03.013.015.015.04.013.063l-.005.012a.066.066 0 0 0 .02.07c.02.018.046.025.074.018l.398-.148a.103.103 0 0 1 .058.005c.016.007.028.03.034.045l.007.035c.003.025.026.045.049.053.025.01.053 0 .071-.015l.293-.293c.018-.018.039-.02.059-.02.02.002.041.015.048.032l.008.013c.013.025.038.037.066.037a.067.067 0 0 0 .061-.042l.187-.404c.007-.017.02-.035.035-.037a.052.052 0 0 1 .054 0l.051.02c.02.007.048.007.064-.008a.074.074 0 0 0 .033-.062v-.424c0-.04.033-.07.071-.07h.082c.02 0 .043-.012.069-.093Zc.005.048.007.023 0 0Zm-2.782-12.256c.097-.535.358-.951.783-1.248.426-.299.912-.406 1.455-.321.546.087.965.338 1.257.752.293.414.39.893.291 1.438a1.82 1.82 0 0 1-.767 1.22c-.422.289-.901.39-1.438.305-.553-.087-.979-.333-1.278-.739-.297-.405-.398-.875-.303-1.407Zm1.157-4.567c.17-.518.487-.898.949-1.14.464-.244.96-.29 1.489-.14.529.152.909.452 1.142.899.231.446.259.933.084 1.461a1.849 1.849 0 0 1-.933 1.114c-.457.236-.946.278-1.466.128-.535-.152-.923-.447-1.163-.887-.238-.439-.272-.917-.102-1.435Zm4.496-1.305-3.45-1.378.466-1.022c.141-.307.343-.517.605-.629.26-.112.54-.107.841.013.201.08.356.198.467.353a.841.841 0 0 1 .163.519c-.007.19-.079.437-.217.741l-.158.343 1.497.596-.214.464Zm5.772-9.051-2.779-2.347.63-.651c.255-.262.526-.412.813-.449a.993.993 0 0 1 .79.246.917.917 0 0 1 .312.468.865.865 0 0 1-.051.549c.139-.033.297-.048.474-.043.178.007.462.045.851.113.245.042.434.069.566.083l.332.03-.428.443-.291-.042a.4.4 0 0 0-.056-.005l-.181-.02-.314-.058-.336-.058a3.242 3.242 0 0 0-.48-.02 1.253 1.253 0 0 0-.311.05c-.08.025-.178.099-.296.221l-.094.098 1.209 1.022-.36.37Zm15.319-9.809-1.089-3.349.9-.256c.362-.102.677-.099.944.008a.91.91 0 0 1 .543.591.86.86 0 0 1 .007.551.944.944 0 0 1-.346.446c.137.037.281.1.43.19.148.092.371.261.669.506.186.156.333.27.438.343l.268.188-.61.173-.229-.178a.52.52 0 0 0-.043-.032l-.143-.103-.24-.2-.257-.211a2.7 2.7 0 0 0-.398-.245 1.141 1.141 0 0 0-.296-.108c-.082-.017-.206-.002-.375.045l-.132.038.471 1.458-.512.145Zm12.047-5.273c.58.01 1.058.189 1.436.538.379.349.564.782.556 1.298-.011.516-.214.94-.61 1.272-.394.331-.888.491-1.481.481-.564-.01-1.032-.187-1.402-.531a1.64 1.64 0 0 1-.541-1.28c.01-.522.208-.952.594-1.287.386-.338.869-.501 1.448-.491Zm7.231.799.37.075.839 3.77-.538-.108-.252-1.112-1.556-.316-.698.92-.538-.108 2.373-3.121Zm15.946 6.974c.454.335.718.75.791 1.242.075.491-.06.94-.403 1.345s-.78.626-1.311.664c-.528.04-1.025-.112-1.489-.456-.442-.327-.698-.733-.77-1.217-.069-.483.066-.924.406-1.323a1.879 1.879 0 0 1 1.308-.686c.525-.049 1.014.095 1.468.431Zm2.68 7.289 2.971-2.124.77.937c.309.377.492.72.55 1.027a1.5 1.5 0 0 1-.102.907 1.757 1.757 0 0 1-.612.746 1.907 1.907 0 0 1-.657.301 1.962 1.962 0 0 1-.732.037 1.882 1.882 0 0 1-.709-.24 2.023 2.023 0 0 1-.324-.225 4.908 4.908 0 0 1-.433-.486l-.722-.88Zm3.876 5.301 3.345-1.576.423.782c.17.315.221.606.153.872-.066.263-.242.463-.528.598a1.043 1.043 0 0 1-.578.103 1.012 1.012 0 0 1-.531-.243c-.017.134-.06.277-.13.431a5.968 5.968 0 0 1-.415.701 7.148 7.148 0 0 0-.289.464l-.15.278-.288-.534.148-.238.025-.047.084-.148.171-.256.179-.273c.088-.157.152-.293.191-.408a.895.895 0 0 0 .061-.291c.005-.078-.032-.191-.112-.338l-.064-.115-1.456.686-.239-.448Zm6.976 7.109c.136.526.071 1.004-.194 1.433-.265.431-.666.707-1.204.829-.537.122-1.027.046-1.471-.228-.443-.272-.735-.677-.874-1.215-.133-.513-.068-.98.194-1.403.263-.42.66-.691 1.19-.811.544-.124 1.039-.054 1.484.21.447.264.739.659.875 1.185Zm-2.708 6.916 3.74-.012.005 1.18c.002.476-.073.853-.226 1.132a1.682 1.682 0 0 1-.671.664 2.014 2.014 0 0 1-1.691.115 1.83 1.83 0 0 1-1.012-.977 1.737 1.737 0 0 1-.114-.363 5.209 5.209 0 0 1-.029-.632l-.002-1.107Zm2.017 8.019a.333.333 0 0 1-.329-.333c0-.186.148-.336.329-.336.181 0 .329.15.329.336a.333.333 0 0 1-.329.333Zm1.555-.125a3.339 3.339 0 0 0-.155-.371c-.013-.023-.013-.043 0-.063a.067.067 0 0 1 .048-.042l.025-.005c.026-.003.046-.026.054-.051a.065.065 0 0 0-.018-.07 4.113 4.113 0 0 0-.283-.308.076.076 0 0 1-.02-.062.105.105 0 0 1 .033-.056l.005-.005a.078.078 0 0 0 .036-.065.076.076 0 0 0-.036-.062 5.286 5.286 0 0 0-.377-.188c-.021-.01-.039-.025-.041-.05a.087.087 0 0 1 .01-.063l.005-.01a.066.066 0 0 0 .008-.075c-.013-.025-.033-.04-.056-.04-.125-.01-.304-.025-.418-.025-.021 0-.041-.013-.059-.03-.013-.018-.015-.043-.013-.063v-.007a.071.071 0 0 0-.02-.073c-.021-.015-.046-.025-.069-.015a5.734 5.734 0 0 0-.395.14c-.021.01-.044.01-.061-.002-.021-.013-.034-.03-.034-.055v-.008a.075.075 0 0 0-.043-.06.076.076 0 0 0-.071.012c-.095.086-.23.206-.311.286-.018.015-.039.025-.059.02a.11.11 0 0 1-.054-.032l-.002-.011c-.013-.02-.038-.037-.061-.032a.073.073 0 0 0-.062.038c-.058.112-.137.28-.181.383a.063.063 0 0 1-.045.042.079.079 0 0 1-.062-.012l-.007.005c-.021-.018-.051-.023-.074-.01a.066.066 0 0 0-.041.06c-.01.125-.026.308-.026.426a.07.07 0 0 1-.028.057c-.017.013-.04.018-.061.013h-.01a.065.065 0 0 0-.069.02c-.015.023-.025.048-.015.073.036.117.094.295.135.405.008.02.008.046-.005.063-.008.02-.026.033-.049.038h-.01a.068.068 0 0 0-.056.045c-.007.025-.005.055.013.07.076.098.196.238.278.323.018.015.02.038.02.063a.074.074 0 0 1-.033.052h-.002c-.026.013-.039.038-.039.068 0 .03.018.05.041.062l.377.183c.023.01.039.03.044.05.002.023 0 .048-.018.063l-.008.005a.066.066 0 0 0-.007.075c.012.025.033.043.061.043l.418.02a.07.07 0 0 1 .054.03c.012.015.015.04.012.063l-.005.012a.067.067 0 0 0 .021.07c.02.018.045.025.074.018l.397-.148a.106.106 0 0 1 .059.005c.015.007.028.03.033.045l.008.035a.073.073 0 0 0 .048.053c.026.01.054 0 .072-.015l.295-.293c.016-.018.036-.02.056-.02a.062.062 0 0 1 .049.032l.01.013c.01.025.036.037.064.037a.068.068 0 0 0 .061-.042l.186-.404c.008-.017.021-.035.036-.037a.05.05 0 0 1 .053 0l.051.02c.021.007.049.007.064-.008a.071.071 0 0 0 .033-.062v-.424c0-.04.033-.07.072-.07h.081c.021 0 .046-.012.069-.092Zc.005.047.008.022 0 0Z" fill-rule="evenodd" fill="var(--logo-color)" style="fill: rgb(255, 255, 255); fill-opacity: 1;" class="fills"/></g></g></svg>